<?xml version="1.0" standalone="yes"?>
<svg xmlns="http://www.w3.org/2000/svg" width="558" height="559">
<path style="fill:#fdfdfc; stroke:none;" d="M0 0L0 559L558 559L558 0L0 0z"/>
<path style="fill:#a3a3a3; stroke:none;" d="M115 20L114 22L115 20z"/>
<path style="fill:#5e5e5d; stroke:none;" d="M116.667 20.3333L117.333 20.6667L116.667 20.3333z"/>
<path style="fill:#a3a3a3; stroke:none;" d="M160 20L160 21L166 21L160 20z"/>
<path style="fill:#5e5e5d; stroke:none;" d="M166 20L166 21L189 21L166 20z"/>
<path style="fill:#a3a3a3; stroke:none;" d="M189 20L189 21L193 21L189 20z"/>
<path style="fill:#262626; stroke:none;" d="M60 522L69 523L69 524L58 525L58 527L63 527C65.0119 533.141 70.7474 532.14 76 531.324C85.6673 529.822 96.2126 530 106 530L106 532C95.8941 532.007 86.0682 534.507 76 535C71.5185 535.22 65.5994 534.987 63 539C90.0051 539 116.711 533 144 533C151.14 533 166.377 535.55 171 529L184 530L187 525L187 524L180 524L163 521.816L114 519L110.039 427L111 344L109.004 275L111.996 210L111.039 123L118 27C175.123 19.7808 231.817 29.038 289 29C278.406 52.9352 282 83.4733 282 109L288 109C288 90.782 287.022 72.0757 289.424 54C290.583 45.2797 295.862 33.1658 292 25C280.614 27.7119 270.387 25.0557 259 25.0008C225.805 24.8408 193.184 20.2018 160 21.0146C150.003 21.2595 140.014 22.6877 130 23.054C125.626 23.214 120.703 25.1249 118 21C109.042 23.8296 111.637 44.2029 110.715 52C108.709 68.9431 109.075 86.0065 107.91 103C106.711 120.495 103.875 137.261 105.09 155C107.427 189.129 103.849 222.935 103.015 257C101.662 312.227 103.996 367.779 104 423C104.001 445.549 106.46 468.359 107.015 491C107.181 497.777 111.004 510.64 106.972 516.682C104.679 520.118 98.5202 519 95 519C87.1302 519 64.8532 515.131 60 522z"/>
<path style="fill:#a3a3a3; stroke:none;" d="M118 21L119 22L118 21M146 21L146 22L151 22L146 21z"/>
<path style="fill:#5e5e5d; stroke:none;" d="M151 21L151 22L155 22L151 21M196 21L196 22L199 22L196 21z"/>
<path style="fill:#a3a3a3; stroke:none;" d="M199 21L199 22L203 22L199 21z"/>
<path style="fill:#5e5e5d; stroke:none;" d="M118.333 22.6667L118.667 23.3333L118.333 22.6667z"/>
<path style="fill:#f9cd47; stroke:none;" d="M133 22L134 23L133 22z"/>
<path style="fill:#a3a3a3; stroke:none;" d="M134 22L134 23L139 23L134 22z"/>
<path style="fill:#5e5e5d; stroke:none;" d="M139 22L139 23L142 23L139 22M205.667 22.3333L206.333 22.6667L205.667 22.3333z"/>
<path style="fill:#a3a3a3; stroke:none;" d="M207.667 22.3333L208.333 22.6667L207.667 22.3333z"/>
<path style="fill:#f9cd47; stroke:none;" d="M209 22L210 23L209 22z"/>
<path style="fill:#a3a3a3; stroke:none;" d="M113 23L114 24L113 23M120 23L120 24L123 24L120 23z"/>
<path style="fill:#5e5e5d; stroke:none;" d="M123 23L124 24L123 23M125.667 23.3333L126.333 23.6667L125.667 23.3333M162 23L162 24L187 24L162 23M212 23L213 24L212 23z"/>
<path style="fill:#a3a3a3; stroke:none;" d="M213 23L213 24L216 24L213 23z"/>
<path style="fill:#5e5e5d; stroke:none;" d="M148 24L148 25L152 25L148 24z"/>
<path style="fill:#a3a3a3; stroke:none;" d="M152 24L152 25L157 25L152 24M189 24L189 25L193 25L189 24z"/>
<path style="fill:#5e5e5d; stroke:none;" d="M193 24L193 25L196 25L193 24M219 24L220 25L219 24z"/>
<path style="fill:#a3a3a3; stroke:none;" d="M220 24L220 25L223 25L220 24M262.667 24.3333L263.333 24.6667L262.667 24.3333M112.333 25.6667L112.667 26.3333L112.333 25.6667z"/>
<path style="fill:#5e5e5d; stroke:none;" d="M134 25L134 26L139 26L134 25z"/>
<path style="fill:#a3a3a3; stroke:none;" d="M139 25L139 26L143 26L139 25z"/>
<path style="fill:#f9cd47; stroke:none;" d="M143 25L144 26L143 25z"/>
<path style="fill:#a3a3a3; stroke:none;" d="M199 25L199 26L202 26L199 25z"/>
<path style="fill:#5e5e5d; stroke:none;" d="M202.667 25.3333L203.333 25.6667L202.667 25.3333M266 25L267 26L266 25z"/>
<path style="fill:#a3a3a3; stroke:none;" d="M267.667 25.3333L268.333 25.6667L267.667 25.3333z"/>
<path style="fill:#f9cd47; stroke:none;" d="M269 25L270 26L269 25z"/>
<path style="fill:#a3a3a3; stroke:none;" d="M288.667 25.3333L289.333 25.6667L288.667 25.3333z"/>
<path style="fill:#5e5e5d; stroke:none;" d="M290 25L291 26L290 25M292 25L293 28L294 28L292 25z"/>
<path style="fill:#a3a3a3; stroke:none;" d="M293 25L294 26L293 25z"/>
<path style="fill:#5e5e5d; stroke:none;" d="M121 26L122 27L121 26z"/>
<path style="fill:#a3a3a3; stroke:none;" d="M122.667 26.3333L123.333 26.6667L122.667 26.3333z"/>
<path style="fill:#5e5e5d; stroke:none;" d="M124 26L125 27L124 26z"/>
<path style="fill:#a3a3a3; stroke:none;" d="M125 26L125 27L129 27L125 26z"/>
<path style="fill:#f9cd47; stroke:none;" d="M129 26L130 27L129 26M205 26L206 27L205 26z"/>
<path style="fill:#a3a3a3; stroke:none;" d="M206 26L206 27L209 27L206 26z"/>
<path style="fill:#5e5e5d; stroke:none;" d="M209 26L210 27L209 26M274 26L274 27L278 27L274 26z"/>
<path style="fill:#a3a3a3; stroke:none;" d="M278 26L279 27L278 26z"/>
<path style="fill:#5e5e5d; stroke:none;" d="M279 26L279 27L282 27L279 26M112 27L112 30L113 30L112 27z"/>
<path style="fill:#a3a3a3; stroke:none;" d="M118 27L118 31L119 31L118 27M212 27L212 28L215 28L212 27z"/>
<path style="fill:#5e5e5d; stroke:none;" d="M215.667 27.3333L216.333 27.6667L215.667 27.3333z"/>
<path style="fill:#a3a3a3; stroke:none;" d="M294.333 27.6667L294.667 28.3333L294.333 27.6667z"/>
<path style="fill:#f9cd47; stroke:none;" d="M218 28L219 29L218 28z"/>
<path style="fill:#a3a3a3; stroke:none;" d="M219 28L219 29L262 29C250.775 24.2895 231.219 28 219 28z"/>
<path style="fill:#5e5e5d; stroke:none;" d="M262 28L263 29L262 28z"/>
<path style="fill:#a3a3a3; stroke:none;" d="M265 29L265 30L268 30L265 29z"/>
<path style="fill:#5e5e5d; stroke:none;" d="M268 29L268 30L272 30L268 29M279 29L279 30L285 30L279 29z"/>
<path style="fill:#a3a3a3; stroke:none;" d="M285 29L285 30L288 31L285 29z"/>
<path style="fill:#5e5e5d; stroke:none;" d="M288 29L289 30L288 29M294.333 29.6667L294.667 30.3333L294.333 29.6667M287.333 31.6667L287.667 32.3333L287.333 31.6667z"/>
<path style="fill:#a3a3a3; stroke:none;" d="M294.333 31.6667L294.667 32.3333L294.333 31.6667z"/>
<path style="fill:#5e5e5d; stroke:none;" d="M293 32L293 35L294 35L293 32z"/>
<path style="fill:#a3a3a3; stroke:none;" d="M111 33L111 39L112 39L111 33M286.333 33.6667L286.667 34.3333L286.333 33.6667z"/>
<path style="fill:#5e5e5d; stroke:none;" d="M117 34L117 42L118 42L117 34M286 35L287 36L286 35z"/>
<path style="fill:#a3a3a3; stroke:none;" d="M293.333 35.6667L293.667 36.3333L293.333 35.6667z"/>
<path style="fill:#5e5e5d; stroke:none;" d="M292 36L292 39L293 39L292 36z"/>
<path style="fill:#a3a3a3; stroke:none;" d="M285.333 37.6667L285.667 38.3333L285.333 37.6667z"/>
<path style="fill:#5e5e5d; stroke:none;" d="M111 39L111 43L112 43L111 39M285.333 39.6667L285.667 40.3333L285.333 39.6667z"/>
<path style="fill:#a3a3a3; stroke:none;" d="M292.333 39.6667L292.667 40.3333L292.333 39.6667M284.333 41.6667L284.667 42.3333L284.333 41.6667z"/>
<path style="fill:#5e5e5d; stroke:none;" d="M291.333 41.6667L291.667 42.3333L291.333 41.6667z"/>
<path style="fill:#a3a3a3; stroke:none;" d="M117 42L117 47L118 47L117 42z"/>
<path style="fill:#5e5e5d; stroke:none;" d="M284.333 43.6667L284.667 44.3333L284.333 43.6667z"/>
<path style="fill:#a3a3a3; stroke:none;" d="M291.333 43.6667L291.667 44.3333L291.333 43.6667z"/>
<path style="fill:#5e5e5d; stroke:none;" d="M290 45L290 49L291 49L290 45z"/>
<path style="fill:#f9cd47; stroke:none;" d="M291 45L292 46L291 45z"/>
<path style="fill:#a3a3a3; stroke:none;" d="M283 46L283 50L284 50L283 46M110.333 47.6667L110.667 48.3333L110.333 47.6667z"/>
<path style="fill:#f9cd47; stroke:none;" d="M117 47L118 48L117 47z"/>
<path style="fill:#5e5e5d; stroke:none;" d="M110 49L110 54L111 54L110 49z"/>
<path style="fill:#a3a3a3; stroke:none;" d="M290 49L290 53L291 53L290 49z"/>
<path style="fill:#5e5e5d; stroke:none;" d="M116 50L116 54L117 54L116 50M283.333 50.6667L283.667 51.3333L283.333 50.6667M289 53L289 58L290 58L289 53z"/>
<path style="fill:#a3a3a3; stroke:none;" d="M116 54L116 59L117 59L116 54M282 54L282 59L283 59L282 54M109 57L109 63L110 63L109 57M289 58L289 69L290 69L289 58z"/>
<path style="fill:#5e5e5d; stroke:none;" d="M282 59L282 65L283 65L282 59M109 63L109 67L110 67L109 63M115 63L115 69L116 69L115 63M288 68L288 109L289 109C289 97.3043 292.511 78.7499 288 68z"/>
<path style="fill:#a3a3a3; stroke:none;" d="M115 69L115 77L116 77L115 69z"/>
<path style="fill:#f9cd47; stroke:none;" d="M289 69L290 70L289 69M281 70L282 71L281 70M108 71L109 72L108 71z"/>
<path style="fill:#a3a3a3; stroke:none;" d="M281 71L281 110L282 110C282 98.8276 285.311 81.274 281 71z"/>
<path style="fill:#f9cd47; stroke:none;" d="M108 73L109 74L108 73z"/>
<path style="fill:#a3a3a3; stroke:none;" d="M108 74L108 81L109 81L108 74z"/>
<path style="fill:#f9cd47; stroke:none;" d="M115 77L116 78L115 77z"/>
<path style="fill:#5e5e5d; stroke:none;" d="M108 81L108 88L109 88L108 81M114 85L114 94L115 94L114 85z"/>
<path style="fill:#a3a3a3; stroke:none;" d="M114 94L114 101L115 101L114 94M107 95L107 104L108 104L107 95z"/>
<path style="fill:#f9cd47; stroke:none;" d="M114 101L115 102L114 101z"/>
<path style="fill:#5e5e5d; stroke:none;" d="M107 104L107 107L108 107L107 104M113 105L113 108L114 108L113 105z"/>
<path style="fill:#a3a3a3; stroke:none;" d="M113 108L113 111L114 111L113 108z"/>
<path style="fill:#f9cd47; stroke:none;" d="M263 215C258.377 227.254 263.853 241.41 259.397 252.961C257.42 258.084 250.147 262.259 245.996 265.601C234.505 274.853 223.042 284.439 211 292.965C205.374 296.947 199.58 300.969 194.233 305.309C192.629 306.612 190.646 309.393 193.362 310.846C198.373 313.529 207.486 304.021 211 301.374C226.268 289.874 242.679 271.72 260 264C259.869 280.038 260.338 295.973 261.039 312C261.317 318.335 263.596 325.723 260.929 331.83C251.216 354.072 236.432 375.089 224.139 396C220.562 402.083 211.421 414.206 213.777 421.852C214.78 425.106 218.743 425.292 220.547 422.681C223.534 418.359 224.298 411.784 226.784 407C237.377 386.614 254.584 367.27 261 345C274.058 360.361 283.913 380.608 294.139 398C296.218 401.537 301.937 415.13 307.682 411.914C311.61 409.715 308.578 404.633 307.046 402C301.948 393.24 296.37 384.764 291.283 376C284.641 364.555 274.036 352.548 269.853 340C266.895 331.124 269.213 319.282 268.985 310C268.563 292.758 264.803 275.222 268 258C284.518 269.845 300.228 291.984 312.789 308C315.628 311.621 322.216 326.364 327.046 326.364C336.701 326.364 321.5 307.261 319.714 305C308.512 290.818 295.819 277.542 283.845 264.001C279.283 258.841 271.075 253.365 268.589 246.83C265.406 238.465 273.311 219.278 266 214C275.716 207.061 287.296 203.127 297 196.212C304.619 190.783 309.232 183.954 315.17 177C319.759 171.626 325.61 166.035 327.481 159C332.067 141.758 327.306 119.145 309 111.634C300.636 108.203 292.624 109.849 284 109.455C276.185 109.098 270.406 106.435 263 110.83C242.492 123.002 220.32 140.274 213.054 164C210.462 172.464 208.832 188.65 212.225 197C220.223 216.686 245.273 219.984 263 215z"/>
<path style="fill:#5e5e5d; stroke:none;" d="M282.667 109.333L283.333 109.667L282.667 109.333z"/>
<path style="fill:#a3a3a3; stroke:none;" d="M284.667 109.333L285.333 109.667L284.667 109.333M106.333 110.667L106.667 111.333L106.333 110.667z"/>
<path style="fill:#fdfdfc; stroke:none;" d="M276 111C263.719 112.258 252.325 125.143 243.001 132.483C234.95 138.821 228.913 145.753 224.248 155C212.186 178.909 216.184 214.449 250 213.981C260.261 213.84 268.442 208.163 277 203.287C298.854 190.835 334.381 166.364 324.945 136C321.407 124.614 312.163 114.48 300 113.174C293.146 112.437 278.494 119.141 276 111z"/>
<path style="fill:#5e5e5d; stroke:none;" d="M106.333 112.667L106.667 113.333L106.333 112.667M112.333 113.667L112.667 114.333L112.333 113.667z"/>
<path style="fill:#a3a3a3; stroke:none;" d="M285 113L285 114L288 114L285 113M105.333 115.667L105.667 116.333L105.333 115.667M112.333 115.667L112.667 116.333L112.333 115.667z"/>
<path style="fill:#5e5e5d; stroke:none;" d="M105.333 117.667L105.667 118.333L105.333 117.667M111 118L111 144L112 144L111 118z"/>
<path style="fill:#f9cd47; stroke:none;" d="M104 124L105 125L104 124z"/>
<path style="fill:#a3a3a3; stroke:none;" d="M104 125L104 144L105 144L104 125M112 157L112 166L113 166L112 157z"/>
<path style="fill:#5e5e5d; stroke:none;" d="M105 158L105 166L106 166L105 158z"/>
<path style="fill:#a3a3a3; stroke:none;" d="M105 166L105 203L106 203C106 192.351 109.111 175.798 105 166z"/>
<path style="fill:#5e5e5d; stroke:none;" d="M112 166L112 203L113 203C113 192.351 116.111 175.798 112 166M105 203L105 208L106 208L105 203z"/>
<path style="fill:#a3a3a3; stroke:none;" d="M112 203L112 210L113 210L112 203z"/>
<path style="fill:#f9cd47; stroke:none;" d="M112 210L113 211L112 210z"/>
<path style="fill:#a3a3a3; stroke:none;" d="M104 213L104 219L105 219L104 213z"/>
<path style="fill:#5e5e5d; stroke:none;" d="M111 216L111 221L112 221L111 216M104 219L104 222L105 222L104 219z"/>
<path style="fill:#a3a3a3; stroke:none;" d="M111 221L111 226L112 226L111 221z"/>
<path style="fill:#f9cd47; stroke:none;" d="M111 226L112 227L111 226M103 228L104 229L103 228z"/>
<path style="fill:#a3a3a3; stroke:none;" d="M103 229L103 246L104 246L103 229z"/>
<path style="fill:#5e5e5d; stroke:none;" d="M110 244L110 250L111 250L110 244M103 246L103 252L104 252L103 246z"/>
<path style="fill:#a3a3a3; stroke:none;" d="M110 250L110 257L111 257L110 250z"/>
<path style="fill:#f9cd47; stroke:none;" d="M110 257L111 258L110 257M102 259L103 260L102 259z"/>
<path style="fill:#a3a3a3; stroke:none;" d="M102 260L102 299L103 299C103 287.828 106.311 270.274 102 260z"/>
<path style="fill:#5e5e5d; stroke:none;" d="M109 268L109 300L110 300L109 268z"/>
<path style="fill:#f9cd47; stroke:none;" d="M102 299L103 300L102 299z"/>
<path style="fill:#5e5e5d; stroke:none;" d="M103 307L103 318L104 318L103 307z"/>
<path style="fill:#a3a3a3; stroke:none;" d="M110 308L110 319L111 319L110 308M103 318L103 336L104 336L103 318z"/>
<path style="fill:#5e5e5d; stroke:none;" d="M110 319L110 336L111 336L110 319M104 347L104 405L105 405L105 366L104 347z"/>
<path style="fill:#a3a3a3; stroke:none;" d="M111 347L111 395L112 395C112 381.474 116.209 359.414 111 347z"/>
<path style="fill:#f9cd47; stroke:none;" d="M111 395L111 398L112 398L111 395z"/>
<path style="fill:#5e5e5d; stroke:none;" d="M110 406L110 409L111 409L110 406z"/>
<path style="fill:#a3a3a3; stroke:none;" d="M103 408L103 412L104 412L103 408M110 409L110 414L111 414L110 409z"/>
<path style="fill:#5e5e5d; stroke:none;" d="M103 412L103 425L104 425L103 412z"/>
<path style="fill:#a3a3a3; stroke:none;" d="M110 424L110 427L111 427L110 424M103 425L103 430L104 430L103 425z"/>
<path style="fill:#5e5e5d; stroke:none;" d="M110 427L110 432L111 432L110 427M104 433L104 437L105 437L104 433z"/>
<path style="fill:#a3a3a3; stroke:none;" d="M111 434L111 440L112 440L111 434M104 437L104 441L105 441L104 437z"/>
<path style="fill:#5e5e5d; stroke:none;" d="M111 440L111 443L112 443L111 440M105 445L105 448L106 448L105 445z"/>
<path style="fill:#a3a3a3; stroke:none;" d="M112 447L112 450L113 450L112 447M105 448L105 451L106 451L105 448z"/>
<path style="fill:#5e5e5d; stroke:none;" d="M112 450L112 454L113 454L112 450M106 455L106 466L107 466L106 455z"/>
<path style="fill:#a3a3a3; stroke:none;" d="M113 464L113 482L114 482L113 464M106 466L106 482L107 482L106 466z"/>
<path style="fill:#f9cd47; stroke:none;" d="M106 482L107 483L106 482z"/>
<path style="fill:#5e5e5d; stroke:none;" d="M113 482L113 496L114 496L113 482M107 496L107 518L83 518L83 519C89.1675 519 100.111 521.138 105.682 518.397C110.199 516.174 108.646 499.923 107 496z"/>
<path style="fill:#f9cd47; stroke:none;" d="M69 517L70 518L69 517z"/>
<path style="fill:#a3a3a3; stroke:none;" d="M70 517L71 518L70 517z"/>
<path style="fill:#f9cd47; stroke:none;" d="M71 517L72 518L71 517z"/>
<path style="fill:#a3a3a3; stroke:none;" d="M72 517L72 518L107 518L72 517M114 517L114 518L121 518L114 517z"/>
<path style="fill:#f9cd47; stroke:none;" d="M121 517L121 518L124 518L121 517z"/>
<path style="fill:#a3a3a3; stroke:none;" d="M61 518L61 519L64 519L61 518z"/>
<path style="fill:#5e5e5d; stroke:none;" d="M64 518L64 519L82 519L64 518M114 518L114 519L131 519L114 518z"/>
<path style="fill:#a3a3a3; stroke:none;" d="M131 518L131 519L141 519L131 518z"/>
<path style="fill:#f9cd47; stroke:none;" d="M141 518L142 519L141 518z"/>
<path style="fill:#a3a3a3; stroke:none;" d="M59 519L59 522L60 522L59 519z"/>
<path style="fill:#5e5e5d; stroke:none;" d="M60.6667 519.333L61.3333 519.667L60.6667 519.333M136 519L136 520L146 520L136 519z"/>
<path style="fill:#a3a3a3; stroke:none;" d="M146 519L146 520L153 520L146 519z"/>
<path style="fill:#5e5e5d; stroke:none;" d="M150 520L150 521L156 521L150 520z"/>
<path style="fill:#a3a3a3; stroke:none;" d="M156 520L156 521L171 521L156 520M176 520L176 521L179 521L176 520z"/>
<path style="fill:#5e5e5d; stroke:none;" d="M160 521L160 522L169 522L160 521M170 521L170 522L180 522L170 521z"/>
<path style="fill:#a3a3a3; stroke:none;" d="M59 523L59 524L63 524L59 523z"/>
<path style="fill:#5e5e5d; stroke:none;" d="M61 522L61 523L63 523L63 524L58 524L58 525L69 524L61 522z"/>
<path style="fill:#a3a3a3; stroke:none;" d="M180 522L180 523L187 523L180 522z"/>
<path style="fill:#5e5e5d; stroke:none;" d="M180 523L181 524L180 523M186 523L187 524L186 523M186 525L187 526L186 525z"/>
<path style="fill:#a3a3a3; stroke:none;" d="M184 526L184 527L187 527L184 526M58 527L59 528L58 527z"/>
<path style="fill:#5e5e5d; stroke:none;" d="M59 527L59 528L63 529L59 527z"/>
<path style="fill:#f9cd47; stroke:none;" d="M184 527L185 528L184 527z"/>
<path style="fill:#a3a3a3; stroke:none;" d="M184.333 528.667L184.667 529.333L184.333 528.667M62 529L63 530L62 529z"/>
<path style="fill:#5e5e5d; stroke:none;" d="M171 529L172 530L171 529M63 530L64 531L63 530M90 530L90 531L99 531L90 530z"/>
<path style="fill:#a3a3a3; stroke:none;" d="M85 531L85 532L103 531L85 531z"/>
<path style="fill:#5e5e5d; stroke:none;" d="M100 531L100 532L106 530L100 531z"/>
<path style="fill:#a3a3a3; stroke:none;" d="M171 530L171 531L177 531L171 530z"/>
<path style="fill:#5e5e5d; stroke:none;" d="M177 530L177 531L184 531L177 530z"/>
<path style="fill:#a3a3a3; stroke:none;" d="M63.6667 531.333L64.3333 531.667L63.6667 531.333z"/>
<path style="fill:#5e5e5d; stroke:none;" d="M65 531L65 532L71 534L71 533L65 531M74 531L74 532L85 532L74 531M169 531L170 532L169 531z"/>
<path style="fill:#a3a3a3; stroke:none;" d="M170 531L171 532L170 531z"/>
<path style="fill:#f9cd47; stroke:none;" d="M179 531L180 532L179 531z"/>
<path style="fill:#a3a3a3; stroke:none;" d="M180 531L180 532L183 532L180 531M66.6667 532.333L67.3333 532.667L66.6667 532.333M71 532L71 533L85 534L71 532z"/>
<path style="fill:#fdfdfc; stroke:none;" d="M83 532L83 533L86 533L83 532z"/>
<path style="fill:#5e5e5d; stroke:none;" d="M92 532L92 533L97 533L92 532M124 532L124 533L127 533L124 532M163 532L163 533L167 533L163 532z"/>
<path style="fill:#a3a3a3; stroke:none;" d="M167.667 532.333L168.333 532.667L167.667 532.333z"/>
<path style="fill:#f9cd47; stroke:none;" d="M169 532L170 533L169 532z"/>
<path style="fill:#a3a3a3; stroke:none;" d="M67 534L67 535L75 535L67 534z"/>
<path style="fill:#fdfdfc; stroke:none;" d="M71 533L71 534L79 534L71 533z"/>
<path style="fill:#5e5e5d; stroke:none;" d="M85 533L85 534L90 534L85 533M113 533L113 534L118 534L113 533z"/>
<path style="fill:#a3a3a3; stroke:none;" d="M118 533L118 534L131 534L118 533z"/>
<path style="fill:#5e5e5d; stroke:none;" d="M131 533L131 534L160 534L131 533z"/>
<path style="fill:#a3a3a3; stroke:none;" d="M160 533L160 534L166 534L160 533z"/>
<path style="fill:#5e5e5d; stroke:none;" d="M75 534L75 535L82 535L75 534M101 534L101 535L107 535L101 534z"/>
<path style="fill:#a3a3a3; stroke:none;" d="M107 534L107 535L116 535L107 534M138 534L138 535L158 535L138 534M63.6667 535.333L64.3333 535.667L63.6667 535.333z"/>
<path style="fill:#5e5e5d; stroke:none;" d="M65 535L65 536L71 536L65 535M94 535L94 536L97 536L94 535z"/>
<path style="fill:#a3a3a3; stroke:none;" d="M97 535L97 536L104 536L97 535z"/>
<path style="fill:#f9cd47; stroke:none;" d="M104 535L105 536L104 535z"/>
<path style="fill:#5e5e5d; stroke:none;" d="M63 536L64 537L63 536M87 536L87 537L90 537L87 536z"/>
<path style="fill:#a3a3a3; stroke:none;" d="M90 536L90 537L95 537L90 536z"/>
<path style="fill:#5e5e5d; stroke:none;" d="M62 537C64.4796 540.825 68.8076 540 73 540L73 539L62 537M81 537L81 538L85 538L81 537z"/>
<path style="fill:#a3a3a3; stroke:none;" d="M85 537L85 538L88 538L85 537z"/>
<path style="fill:#f9cd47; stroke:none;" d="M88 537L89 538L88 537z"/>
<path style="fill:#5e5e5d; stroke:none;" d="M76 538L76 539L80 539L76 538z"/>
<path style="fill:#a3a3a3; stroke:none;" d="M80 538L80 539L83 539L80 538z"/>
<path style="fill:#f9cd47; stroke:none;" d="M83 538L84 539L83 538z"/>
<path style="fill:#a3a3a3; stroke:none;" d="M62 539L63 540L62 539M73 539L73 540L78 540L73 539z"/>
<path style="fill:#f9cd47; stroke:none;" d="M78 539L79 540L78 539z"/>
<path style="fill:#a3a3a3; stroke:none;" d="M63 540L63 541L70 541L63 540z"/>
<path style="fill:#f9cd47; stroke:none;" d="M70 540L71 541L70 540z"/>
</svg>
