<?xml version="1.0" standalone="yes"?>
<svg xmlns="http://www.w3.org/2000/svg" width="574" height="574">
<path style="fill:#fdfdfc; stroke:none;" d="M0 0L0 574L574 574L574 0L0 0z"/>
<path style="fill:#f8cc47; stroke:none;" d="M115 21L116 22L115 21z"/>
<path style="fill:#a3a3a3; stroke:none;" d="M116 21L116 22L118 24L119 24L116 21M162 21L162 22L191 22L162 21z"/>
<path style="fill:#f8cc47; stroke:none;" d="M191 21L192 22L191 21z"/>
<path style="fill:#a3a3a3; stroke:none;" d="M114 22L115 23L114 22z"/>
<path style="fill:#5f5f5f; stroke:none;" d="M115 22L114 24L115 22z"/>
<path style="fill:#262626; stroke:none;" d="M108 519L72 519.424L60 523L69 523L69 524L58 528L63 528L71 534C78.2402 528.544 98.0359 531 107 531L107 532C97.0789 533.254 86.9637 535.221 77 535.911C71.9206 536.262 66.0401 535.176 63 540C90.0147 540 116.728 534 144 534C151.14 534 166.377 536.55 171 530L184 531L187 524L114 519L110.015 426L110.985 341L109.015 283L111.999 211L111.039 125L118 28C174.864 20.8136 231.105 30.4709 288 30L282 111C290.889 108.566 289 101.955 289 94C289 79.0687 288.018 63.7647 290.615 49C291.373 44.6877 297.093 31.0724 292.471 28.1173C289.866 26.4512 283.97 28.0155 281.004 28.2068C273.296 28.7039 265.708 27.003 258 27C246.464 26.9955 234.485 27.9277 223 26.8303C204.072 25.0215 185.153 19.9095 166 22.4244C154.277 23.9636 141.824 24.94 130 25.0008C125.264 25.0251 120.628 26.6501 118 22C109.425 26.5002 111.649 43.5436 110.83 52C107.898 82.3049 105 113.6 105 144C105 238.623 102.877 333.301 104.004 428C104.364 458.288 108 488.584 108 519z"/>
<path style="fill:#a3a3a3; stroke:none;" d="M148 22L148 23L157 23L148 22z"/>
<path style="fill:#5f5f5f; stroke:none;" d="M157 22L157 23L166 23L157 22M189 22L189 23L196 23L189 22z"/>
<path style="fill:#a3a3a3; stroke:none;" d="M196 22L196 23L202 23L196 22z"/>
<path style="fill:#f8cc47; stroke:none;" d="M134 23L135 24L134 23z"/>
<path style="fill:#a3a3a3; stroke:none;" d="M135 23L135 24L143 24L135 23z"/>
<path style="fill:#5f5f5f; stroke:none;" d="M143 23L143 24L153 24L143 23M199 23L199 24L205 24L199 23z"/>
<path style="fill:#a3a3a3; stroke:none;" d="M205 23L205 24L208 24L205 23M113 24L114 25L113 24z"/>
<path style="fill:#5f5f5f; stroke:none;" d="M118 24L119 25L118 24z"/>
<path style="fill:#f8cc47; stroke:none;" d="M120 24L121 25L120 24z"/>
<path style="fill:#a3a3a3; stroke:none;" d="M121 24L121 25L128 25L121 24z"/>
<path style="fill:#5f5f5f; stroke:none;" d="M128 24L128 25L140 25L128 24M163 24L163 25L186 25L163 24M207 24L207 25L212 25L207 24z"/>
<path style="fill:#a3a3a3; stroke:none;" d="M212 24L212 25L215 25L212 24z"/>
<path style="fill:#5f5f5f; stroke:none;" d="M113 25L114 26L113 25M119 25L119 26L123 26L119 25M149 25L149 26L156 26L149 25z"/>
<path style="fill:#a3a3a3; stroke:none;" d="M156 25L156 26L190 26L156 25z"/>
<path style="fill:#5f5f5f; stroke:none;" d="M190 25L190 26L195 26L190 25M213 25L213 26L218 26L213 25z"/>
<path style="fill:#a3a3a3; stroke:none;" d="M218 25L218 26L221 26L218 25z"/>
<path style="fill:#f8cc47; stroke:none;" d="M221 25L222 26L221 25z"/>
<path style="fill:#5f5f5f; stroke:none;" d="M135 26L135 27L142 27L135 26z"/>
<path style="fill:#a3a3a3; stroke:none;" d="M142 26L142 27L152 27L142 26z"/>
<path style="fill:#f8cc47; stroke:none;" d="M152 26L153 27L152 26z"/>
<path style="fill:#a3a3a3; stroke:none;" d="M193 26L193 27L200 27L193 26z"/>
<path style="fill:#5f5f5f; stroke:none;" d="M200 26L200 27L203 27L200 26M220 26L220 27L266 27C254.061 21.9902 233.003 26 220 26z"/>
<path style="fill:#a3a3a3; stroke:none;" d="M266 26L266 27L269 27L266 26M290 26L291 27L290 26z"/>
<path style="fill:#5f5f5f; stroke:none;" d="M291 26L292 27L291 26z"/>
<path style="fill:#a3a3a3; stroke:none;" d="M292 26L293 27L292 26z"/>
<path style="fill:#f8cc47; stroke:none;" d="M293 26L294 27L293 26z"/>
<path style="fill:#a3a3a3; stroke:none;" d="M112.333 27.6667L112.667 28.3333L112.333 27.6667z"/>
<path style="fill:#5f5f5f; stroke:none;" d="M121 27L121 28L127 28L121 27z"/>
<path style="fill:#a3a3a3; stroke:none;" d="M127 27L127 28L139 28L127 27M202 27L202 28L206 28L202 27z"/>
<path style="fill:#5f5f5f; stroke:none;" d="M206 27L206 28L210 28L206 27M267 27L267 28L274 28L267 27z"/>
<path style="fill:#a3a3a3; stroke:none;" d="M274 27L274 28L283 28L274 27z"/>
<path style="fill:#5f5f5f; stroke:none;" d="M283.667 27.3333L284.333 27.6667L283.667 27.3333z"/>
<path style="fill:#a3a3a3; stroke:none;" d="M285 27L286 28L285 27z"/>
<path style="fill:#5f5f5f; stroke:none;" d="M286 27L286 28L290 28L286 27M293 27L294 28L293 27M118 28L119 29L118 28z"/>
<path style="fill:#a3a3a3; stroke:none;" d="M119 28L119 29L122 29L119 28z"/>
<path style="fill:#f8cc47; stroke:none;" d="M122.667 28.3333L123.333 28.6667L122.667 28.3333z"/>
<path style="fill:#a3a3a3; stroke:none;" d="M124 28L125 29L124 28M209 28L209 29L213 29L209 28z"/>
<path style="fill:#5f5f5f; stroke:none;" d="M213 28L213 29L216 29L213 28M275 28L276 29L275 28M277 28L277 29L280 29L277 28z"/>
<path style="fill:#a3a3a3; stroke:none;" d="M294.333 28.6667L294.667 29.3333L294.333 28.6667z"/>
<path style="fill:#5f5f5f; stroke:none;" d="M112 29L112 32L113 32L112 29z"/>
<path style="fill:#a3a3a3; stroke:none;" d="M118 29L118 32L119 32L118 29M215 29L215 30L220 30L215 29z"/>
<path style="fill:#5f5f5f; stroke:none;" d="M220 29L220 30L263 30C251.775 25.2895 232.219 29 220 29z"/>
<path style="fill:#f8cc47; stroke:none;" d="M244 30L245 31L244 30M254 30L255 31L254 30z"/>
<path style="fill:#a3a3a3; stroke:none;" d="M262 30L262 31L266 31L262 30z"/>
<path style="fill:#5f5f5f; stroke:none;" d="M266 30L266 31L272 31L266 30M280 30L280 31L288 31L280 30M294 30L295 31L294 30z"/>
<path style="fill:#f8cc47; stroke:none;" d="M267 31L268 32L267 31z"/>
<path style="fill:#a3a3a3; stroke:none;" d="M268 31L268 32L286 32L268 31M287.333 31.6667L287.667 32.3333L287.333 31.6667z"/>
<path style="fill:#f8cc47; stroke:none;" d="M118 32L119 33L118 32z"/>
<path style="fill:#5f5f5f; stroke:none;" d="M294 32L295 33L294 32M287 33L288 34L287 33z"/>
<path style="fill:#a3a3a3; stroke:none;" d="M294.333 33.6667L294.667 34.3333L294.333 33.6667M111 34L111 41L112 41L111 34M286.333 35.6667L286.667 36.3333L286.333 35.6667z"/>
<path style="fill:#5f5f5f; stroke:none;" d="M293 36L294 37L293 36M286 37L287 38L286 37z"/>
<path style="fill:#a3a3a3; stroke:none;" d="M293 37L294 38L293 37z"/>
<path style="fill:#5f5f5f; stroke:none;" d="M117 38L117 44L118 44L117 38z"/>
<path style="fill:#a3a3a3; stroke:none;" d="M285.333 39.6667L285.667 40.3333L285.333 39.6667z"/>
<path style="fill:#5f5f5f; stroke:none;" d="M292.333 39.6667L292.667 40.3333L292.333 39.6667M111 41L111 44L112 44L111 41M285 41L286 42L285 41z"/>
<path style="fill:#a3a3a3; stroke:none;" d="M292 41L293 42L292 41M284.333 43.6667L284.667 44.3333L284.333 43.6667M117 44L117 49L118 49L117 44z"/>
<path style="fill:#5f5f5f; stroke:none;" d="M291 44L292 45L291 44M284.333 45.6667L284.667 46.3333L284.333 45.6667z"/>
<path style="fill:#a3a3a3; stroke:none;" d="M291.333 45.6667L291.667 46.3333L291.333 45.6667z"/>
<path style="fill:#f8cc47; stroke:none;" d="M110 48L111 49L110 48z"/>
<path style="fill:#a3a3a3; stroke:none;" d="M110.333 49.6667L110.667 50.3333L110.333 49.6667M283 49L283 52L284 52L283 49z"/>
<path style="fill:#5f5f5f; stroke:none;" d="M290.333 49.6667L290.667 50.3333L290.333 49.6667M110 51L110 55L111 55L110 51z"/>
<path style="fill:#a3a3a3; stroke:none;" d="M290 51L290 54L291 54L290 51z"/>
<path style="fill:#5f5f5f; stroke:none;" d="M116 52L116 56L117 56L116 52M283.333 52.6667L283.667 53.3333L283.333 52.6667z"/>
<path style="fill:#a3a3a3; stroke:none;" d="M116 56L116 60L117 60L116 56M282 57L282 61L283 61L282 57z"/>
<path style="fill:#5f5f5f; stroke:none;" d="M289 58L289 61L290 61L289 58z"/>
<path style="fill:#a3a3a3; stroke:none;" d="M109 59L109 64L110 64L109 59z"/>
<path style="fill:#f8cc47; stroke:none;" d="M116 60L117 61L116 60z"/>
<path style="fill:#5f5f5f; stroke:none;" d="M282 61L282 67L283 67L282 61z"/>
<path style="fill:#a3a3a3; stroke:none;" d="M289 61L289 72L290 72L289 61z"/>
<path style="fill:#5f5f5f; stroke:none;" d="M109 64L109 68L110 68L109 64M115 65L115 71L116 71L115 65z"/>
<path style="fill:#a3a3a3; stroke:none;" d="M115 71L115 79L116 79L115 71z"/>
<path style="fill:#f8cc47; stroke:none;" d="M289 72L290 73L289 72z"/>
<path style="fill:#a3a3a3; stroke:none;" d="M108 76L108 84L109 84L108 76z"/>
<path style="fill:#5f5f5f; stroke:none;" d="M108 84L108 90L109 90L108 84z"/>
<path style="fill:#a3a3a3; stroke:none;" d="M281 84L281 109L282 109L281 84z"/>
<path style="fill:#5f5f5f; stroke:none;" d="M114 87L114 95L115 95L114 87z"/>
<path style="fill:#a3a3a3; stroke:none;" d="M114 95L114 103L115 103L114 95z"/>
<path style="fill:#f8cc47; stroke:none;" d="M107 97L108 98L107 97z"/>
<path style="fill:#a3a3a3; stroke:none;" d="M107 98L107 106L108 106L107 98z"/>
<path style="fill:#5f5f5f; stroke:none;" d="M107 106L107 109L108 109L107 106M113 107L113 110L114 110L113 107z"/>
<path style="fill:#f8cc47; stroke:none;" d="M264 216C258.196 226.055 260 238.817 260 250C260 264.568 259.094 279.467 260.09 294C260.893 305.735 263.567 318.203 261.856 329.985C260.935 336.325 254.828 343.331 251.833 349C243.192 365.358 233.43 380.943 224.281 397C220.702 403.281 211.713 415.097 213.893 422.852C214.816 426.136 218.759 426.269 220.547 423.681C223.534 419.359 224.298 412.784 226.784 408C237.226 387.905 255.41 368.176 261 346C274.031 361.289 283.073 380.962 293.684 398C296.022 401.754 301.217 414.677 306.902 413.248C311.619 412.063 309.534 406.786 307.981 404C303.417 395.816 297.988 388.106 293.283 380C286.031 367.505 273.636 353.91 269.638 340C266.95 330.646 269.223 318.689 268.985 309C268.571 292.086 266.66 275.984 268 259C275.665 264.271 281.193 273.033 287.259 280C296.02 290.061 305.899 299.36 313.981 310C316.704 313.584 323.143 329.123 328.787 327.287C335.85 324.99 322.012 308.571 319.995 306C308.808 291.737 295.854 278.629 283.884 265.005C279.419 259.922 270.87 254.273 268.472 247.866C265.974 241.19 272.577 217.868 266 216C274.843 207.035 288.773 203.26 299 195.96C323.233 178.662 342.947 142.552 316.985 118.094C311.02 112.476 303.072 110.301 295 110.043C290.793 109.909 284.858 112.617 282 109C253.265 110.507 221.335 137.732 213.043 166C205.737 190.906 215.4 214.723 243 218.7C250.278 219.749 257.005 217.6 264 216z"/>
<path style="fill:#5f5f5f; stroke:none;" d="M288 109L289 110L288 109z"/>
<path style="fill:#a3a3a3; stroke:none;" d="M113.333 110.667L113.667 111.333L113.333 110.667z"/>
<path style="fill:#5f5f5f; stroke:none;" d="M283 110L283 111L286 111L283 110z"/>
<path style="fill:#a3a3a3; stroke:none;" d="M286 110L286 111L289 111L286 110M106.333 111.667L106.667 112.333L106.333 111.667M282.667 111.333L283.333 111.667L282.667 111.333z"/>
<path style="fill:#5f5f5f; stroke:none;" d="M106.333 113.667L106.667 114.333L106.333 113.667z"/>
<path style="fill:#fdfdfc; stroke:none;" d="M276 117L276 113C267.941 113.419 262.33 118.938 256 123.424C240.569 134.36 221.619 149.694 219.17 170C218.217 177.899 216.23 188.235 218.653 196C222.439 208.134 239.339 215.271 251 214.985C261.151 214.737 269.51 208.716 278 203.873C295.779 193.73 314.342 181.653 323.246 161.996C330.23 146.58 324.577 123.191 308 116.283C296.85 111.637 287.181 116.52 276 117z"/>
<path style="fill:#5f5f5f; stroke:none;" d="M112.333 114.667L112.667 115.333L112.333 114.667z"/>
<path style="fill:#a3a3a3; stroke:none;" d="M286 114L286 116L288 114L286 114z"/>
<path style="fill:#f8cc47; stroke:none;" d="M287 115L288 116L287 115z"/>
<path style="fill:#a3a3a3; stroke:none;" d="M105.333 116.667L105.667 117.333L105.333 116.667M112.333 116.667L112.667 117.333L112.333 116.667z"/>
<path style="fill:#5f5f5f; stroke:none;" d="M105.333 118.667L105.667 119.333L105.333 118.667M111 120L111 145L112 145L111 120z"/>
<path style="fill:#a3a3a3; stroke:none;" d="M104 127L104 144L105 144L104 127z"/>
<path style="fill:#f8cc47; stroke:none;" d="M112 158L113 159L112 158z"/>
<path style="fill:#5f5f5f; stroke:none;" d="M105 159L105 167L106 167L105 159z"/>
<path style="fill:#a3a3a3; stroke:none;" d="M112 159L112 167L113 167L112 159M105 167L105 205L106 205C106 194.089 109.211 177.036 105 167z"/>
<path style="fill:#5f5f5f; stroke:none;" d="M112 167L112 205L113 205C113 194.089 116.211 177.036 112 167M105 205L105 209L106 209L105 205z"/>
<path style="fill:#a3a3a3; stroke:none;" d="M112 205L112 212L113 212L112 205z"/>
<path style="fill:#f8cc47; stroke:none;" d="M104 214L105 215L104 214z"/>
<path style="fill:#a3a3a3; stroke:none;" d="M104 215L104 220L105 220L104 215z"/>
<path style="fill:#5f5f5f; stroke:none;" d="M111 218L111 222L112 222L111 218M104 220L104 223L105 223L104 220z"/>
<path style="fill:#a3a3a3; stroke:none;" d="M111 222L111 227L112 227L111 222z"/>
<path style="fill:#f8cc47; stroke:none;" d="M111 227L112 228L111 227M103.333 238.667L103.667 239.333L103.333 238.667z"/>
<path style="fill:#a3a3a3; stroke:none;" d="M103 240L103 247L104 247L103 240z"/>
<path style="fill:#5f5f5f; stroke:none;" d="M110 246L110 251L111 251L110 246M103 247L103 253L104 253L103 247z"/>
<path style="fill:#a3a3a3; stroke:none;" d="M110 251L110 259L111 259L110 251z"/>
<path style="fill:#f8cc47; stroke:none;" d="M110 259L111 260L110 259z"/>
<path style="fill:#a3a3a3; stroke:none;" d="M102 262L102 300L103 300C103 289.089 106.211 272.036 102 262z"/>
<path style="fill:#5f5f5f; stroke:none;" d="M109 277L109 301L110 301L109 277M103 308L103 319L104 319L103 308z"/>
<path style="fill:#f8cc47; stroke:none;" d="M110 308L111 309L110 308z"/>
<path style="fill:#a3a3a3; stroke:none;" d="M110 309L110 320L111 320L110 309M103 319L103 336L104 336L103 319z"/>
<path style="fill:#5f5f5f; stroke:none;" d="M110 320L110 336L111 336L110 320z"/>
<path style="fill:#f8cc47; stroke:none;" d="M111 347L112 348L111 347z"/>
<path style="fill:#5f5f5f; stroke:none;" d="M104 348L104 406L105 406L105 367L104 348z"/>
<path style="fill:#a3a3a3; stroke:none;" d="M111 348L111 396L112 396C112 382.474 116.209 360.414 111 348z"/>
<path style="fill:#f8cc47; stroke:none;" d="M111 396L112 397L111 396z"/>
<path style="fill:#a3a3a3; stroke:none;" d="M111.333 397.667L111.667 398.333L111.333 397.667z"/>
<path style="fill:#f8cc47; stroke:none;" d="M111 399L111 403L112 403L111 399z"/>
<path style="fill:#5f5f5f; stroke:none;" d="M110.333 408.667L110.667 409.333L110.333 408.667z"/>
<path style="fill:#f8cc47; stroke:none;" d="M103 409L104 410L103 409z"/>
<path style="fill:#a3a3a3; stroke:none;" d="M103 410L103 413L104 413L103 410M110 410L110 415L111 415L110 410z"/>
<path style="fill:#5f5f5f; stroke:none;" d="M103 413L103 426L104 426L103 413z"/>
<path style="fill:#a3a3a3; stroke:none;" d="M110.333 425.667L110.667 426.333L110.333 425.667M103 426L103 429L104 429L103 426z"/>
<path style="fill:#5f5f5f; stroke:none;" d="M110 427L110 432L111 432L110 427z"/>
<path style="fill:#f8cc47; stroke:none;" d="M103 429L104 430L103 429z"/>
<path style="fill:#5f5f5f; stroke:none;" d="M104 434L104 437L105 437L104 434z"/>
<path style="fill:#a3a3a3; stroke:none;" d="M111 435L111 441L112 441L111 435M104 437L104 442L105 442L104 437z"/>
<path style="fill:#5f5f5f; stroke:none;" d="M111 441L111 444L112 444L111 441M105 446L105 449L106 449L105 446z"/>
<path style="fill:#a3a3a3; stroke:none;" d="M112 448L112 451L113 451L112 448M105 449L105 452L106 452L105 449z"/>
<path style="fill:#5f5f5f; stroke:none;" d="M112 451L112 454L113 454L112 451M106 456L106 466L107 466L106 456z"/>
<path style="fill:#a3a3a3; stroke:none;" d="M113 465L113 483L114 483L113 465M106 466L106 483L107 483L106 466z"/>
<path style="fill:#5f5f5f; stroke:none;" d="M113 483L113 496L114 496L113 483M107 496L107 519L108 519L107 496z"/>
<path style="fill:#f8cc47; stroke:none;" d="M67 518L68 519L67 518z"/>
<path style="fill:#a3a3a3; stroke:none;" d="M68 518L68 519L107 519C96.726 514.689 79.1723 518 68 518M114 518L114 519L126 519L114 518z"/>
<path style="fill:#f8cc47; stroke:none;" d="M126 518L127 519L126 518z"/>
<path style="fill:#a3a3a3; stroke:none;" d="M59 521L62 520L59 521z"/>
<path style="fill:#5f5f5f; stroke:none;" d="M62 519L62 520L72 520L62 519M120 519L120 520L135 520L120 519z"/>
<path style="fill:#a3a3a3; stroke:none;" d="M135 519L135 520L143 520L135 519z"/>
<path style="fill:#5f5f5f; stroke:none;" d="M60 520L61 521L60 520M139 520L139 521L149 521L139 520z"/>
<path style="fill:#a3a3a3; stroke:none;" d="M149 520L149 521L154 521L149 520z"/>
<path style="fill:#5f5f5f; stroke:none;" d="M59 521L60 522L59 521M152 521L152 522L160 522L152 521z"/>
<path style="fill:#a3a3a3; stroke:none;" d="M160 521L160 522L171 522L160 521z"/>
<path style="fill:#f8cc47; stroke:none;" d="M171 521L172 522L171 521z"/>
<path style="fill:#a3a3a3; stroke:none;" d="M175 521L175 522L180 522L175 521M59 522L60 523L59 522z"/>
<path style="fill:#5f5f5f; stroke:none;" d="M171 522L171 523L177 523L171 522M179 522L180 523L179 522z"/>
<path style="fill:#a3a3a3; stroke:none;" d="M59 524L59 525L63 525L59 524z"/>
<path style="fill:#5f5f5f; stroke:none;" d="M61 523L61 524L69 524L61 523z"/>
<path style="fill:#a3a3a3; stroke:none;" d="M180 523L180 524L183 524L180 523z"/>
<path style="fill:#5f5f5f; stroke:none;" d="M183 523L183 524L186 524L183 523z"/>
<path style="fill:#a3a3a3; stroke:none;" d="M186 523L187 524L186 523z"/>
<path style="fill:#5f5f5f; stroke:none;" d="M58 525L59 526L58 525M185.667 526.333L186.333 526.667L185.667 526.333z"/>
<path style="fill:#a3a3a3; stroke:none;" d="M184 527L184 531L185 531L184 527z"/>
<path style="fill:#f8cc47; stroke:none;" d="M185 527L186 528L185 527z"/>
<path style="fill:#a3a3a3; stroke:none;" d="M58 528L58 529L62 529L58 528z"/>
<path style="fill:#5f5f5f; stroke:none;" d="M62.3333 528.667L62.6667 529.333L62.3333 528.667z"/>
<path style="fill:#a3a3a3; stroke:none;" d="M62 530L63 531L62 530z"/>
<path style="fill:#5f5f5f; stroke:none;" d="M171.667 530.333L172.333 530.667L171.667 530.333M63 531L64 532L63 531M90 531L90 532L107 532L90 531z"/>
<path style="fill:#a3a3a3; stroke:none;" d="M97 531L97 532L104 532L97 531M171 531L172 532L171 531z"/>
<path style="fill:#f8cc47; stroke:none;" d="M173 531L174 532L173 531z"/>
<path style="fill:#a3a3a3; stroke:none;" d="M174 531L174 532L179 532L174 531z"/>
<path style="fill:#5f5f5f; stroke:none;" d="M179 531L179 532L183 532L179 531z"/>
<path style="fill:#a3a3a3; stroke:none;" d="M183 531L184 532L183 531M64.6667 532.333L65.3333 532.667L64.6667 532.333z"/>
<path style="fill:#5f5f5f; stroke:none;" d="M66 532L66 533L71 536L66 532M71 532L72 533L71 532M74 532L74 533L83 533L74 532z"/>
<path style="fill:#a3a3a3; stroke:none;" d="M83 532L83 533L91 534L83 532z"/>
<path style="fill:#fdfdfc; stroke:none;" d="M90.6667 532.333L91.3333 532.667L90.6667 532.333z"/>
<path style="fill:#a3a3a3; stroke:none;" d="M92 532L92 533L96 533L92 532z"/>
<path style="fill:#5f5f5f; stroke:none;" d="M169 532L170 533L169 532z"/>
<path style="fill:#a3a3a3; stroke:none;" d="M170 532L171 533L170 532M71 536L72 536L73 534L71 536z"/>
<path style="fill:#f8cc47; stroke:none;" d="M73 533L74 534L73 533z"/>
<path style="fill:#fdfdfc; stroke:none;" d="M71 534L71 535L86 534L71 534z"/>
<path style="fill:#5f5f5f; stroke:none;" d="M91 533L91 534L95 534L91 533M123 533L123 534L128 534L123 533M163 533L163 534L166 534L163 533z"/>
<path style="fill:#a3a3a3; stroke:none;" d="M166.667 533.333L167.333 533.667L166.667 533.333z"/>
<path style="fill:#f8cc47; stroke:none;" d="M168 533L169 534L168 533z"/>
<path style="fill:#a3a3a3; stroke:none;" d="M68 534L66 535L66 536L68 534M78 534L78 535L83 535L78 534z"/>
<path style="fill:#5f5f5f; stroke:none;" d="M83 534L83 535L87 535L83 534M112 534L112 535L117 535L112 534z"/>
<path style="fill:#a3a3a3; stroke:none;" d="M117 534L117 535L123 535L117 534z"/>
<path style="fill:#f8cc47; stroke:none;" d="M123 534L124 535L123 534M127 534L128 535L127 534z"/>
<path style="fill:#a3a3a3; stroke:none;" d="M128 534L128 535L138 535L128 534z"/>
<path style="fill:#5f5f5f; stroke:none;" d="M138 534L138 535L158 535L138 534z"/>
<path style="fill:#a3a3a3; stroke:none;" d="M158 534L158 535L163 535L158 534z"/>
<path style="fill:#f8cc47; stroke:none;" d="M163 534L164 535L163 534z"/>
<path style="fill:#5f5f5f; stroke:none;" d="M72 535L72 536L81 536L72 535M101 535L101 536L105 536L101 535z"/>
<path style="fill:#a3a3a3; stroke:none;" d="M105 535L105 536L112 536L105 535z"/>
<path style="fill:#f8cc47; stroke:none;" d="M112 535L113 536L112 535z"/>
<path style="fill:#a3a3a3; stroke:none;" d="M63 536L62 538L63 536z"/>
<path style="fill:#5f5f5f; stroke:none;" d="M64 536L64 537L68 537L64 536M93.6667 536.333L94.3333 536.667L93.6667 536.333z"/>
<path style="fill:#a3a3a3; stroke:none;" d="M95 536L95 537L100 537L95 536z"/>
<path style="fill:#f8cc47; stroke:none;" d="M100 536L101 537L100 536z"/>
<path style="fill:#5f5f5f; stroke:none;" d="M63 537L64 538L63 537M87.6667 537.333L88.3333 537.667L87.6667 537.333z"/>
<path style="fill:#a3a3a3; stroke:none;" d="M89 537L89 538L93 538L89 537z"/>
<path style="fill:#f8cc47; stroke:none;" d="M93 537L94 538L93 537z"/>
<path style="fill:#5f5f5f; stroke:none;" d="M62 538L71 541L71 540L62 538M81 538L81 539L84 539L81 538z"/>
<path style="fill:#a3a3a3; stroke:none;" d="M84 538L84 539L87 539L84 538z"/>
<path style="fill:#5f5f5f; stroke:none;" d="M76 539L76 540L79 540L76 539z"/>
<path style="fill:#a3a3a3; stroke:none;" d="M79.6667 539.333L80.3333 539.667L79.6667 539.333M62 540L63 541L62 540M71 540L71 541L76 541L71 540z"/>
</svg>
