<?xml version="1.0" standalone="yes"?>
<svg xmlns="http://www.w3.org/2000/svg" width="566" height="566">
<path style="fill:#fdfdfc; stroke:none;" d="M0 0L0 566L566 566L566 0L0 0z"/>
<path style="fill:#a8a8a8; stroke:none;" d="M116 11L116 12L118 14L119 14L116 11M164 11L164 12L191 12L164 11M114 12L115 13L114 12z"/>
<path style="fill:#626262; stroke:none;" d="M115 12L114 14L115 12z"/>
<path style="fill:#272727; stroke:none;" d="M108 510L60 511L60 513L69 514L69 515L58 516L58 518L63 518L63 522L107 522L107 523L63 528L63 530C73.6287 533.054 87.1927 527.327 98 526.166C116.891 524.136 135.258 526.194 154 524.911C163.987 524.227 173.02 520.147 183 522L187 517C183.503 511.727 172.682 513.027 167 512.999C149.319 512.914 131.771 510 114 510L110.015 416L110.985 331L109.015 274L111.999 202L111.039 116L118 18L180 14.0394L220 18.9606L289 21C278.668 45.013 282 75.4656 282 101C290.981 99.0177 289 91.6668 289 84C289 68.9554 288.315 53.8937 290.754 39C291.462 34.6776 297.106 21.2316 292.471 18.2686C288.938 16.0094 281.949 18.6607 278 18.6605C266.072 18.6597 254.043 17 242 17C222.703 17 204.165 12.504 185 12.064C162.635 11.5505 140.286 15.0433 118 16L118 12C109.45 16.4869 111.676 33.5511 110.831 42C107.811 72.2082 105 103.683 105 134C105 228.626 102.877 323.3 104.004 418C104.368 448.621 108 479.248 108 510z"/>
<path style="fill:#a8a8a8; stroke:none;" d="M150 12L150 13L160 13L150 12z"/>
<path style="fill:#626262; stroke:none;" d="M160 12L160 13L168 13L160 12M170.667 12.3333L171.333 12.6667L170.667 12.3333M174 12L174 13L177 13L174 12M179.667 12.3333L180.333 12.6667L179.667 12.3333M189 12L189 13L193 13L189 12z"/>
<path style="fill:#a8a8a8; stroke:none;" d="M193 12L193 13L201 13L193 12M136 13L136 14L146 14L136 13z"/>
<path style="fill:#626262; stroke:none;" d="M146 13L146 14L154 14L146 13M198 13L198 14L203 14L198 13z"/>
<path style="fill:#a8a8a8; stroke:none;" d="M203 13L203 14L208 14L203 13M113 14L114 15L113 14z"/>
<path style="fill:#626262; stroke:none;" d="M118.333 14.6667L118.667 15.3333L118.333 14.6667z"/>
<path style="fill:#a8a8a8; stroke:none;" d="M122 14L122 15L134 15L122 14z"/>
<path style="fill:#626262; stroke:none;" d="M134 14L134 15L141 15L134 14M165 14L165 15L185 15L165 14M207 14L207 15L210 15L207 14z"/>
<path style="fill:#a8a8a8; stroke:none;" d="M210 14L210 15L214 15L210 14z"/>
<path style="fill:#626262; stroke:none;" d="M113 15L114 16L113 15z"/>
<path style="fill:#a8a8a8; stroke:none;" d="M119 15L120 16L119 15z"/>
<path style="fill:#626262; stroke:none;" d="M120 15L120 16L124 16L120 15M151 15L151 16L161 16L151 15z"/>
<path style="fill:#a8a8a8; stroke:none;" d="M161 15L161 16L188 16L161 15z"/>
<path style="fill:#626262; stroke:none;" d="M188 15L188 16L194 16L188 15M213 15L213 16L217 16L213 15z"/>
<path style="fill:#a8a8a8; stroke:none;" d="M217 15L217 16L221 16L217 15z"/>
<path style="fill:#626262; stroke:none;" d="M138 16L138 17L147 17L138 16z"/>
<path style="fill:#a8a8a8; stroke:none;" d="M147 16L147 17L155 17L147 16M191 16L191 17L198 17L191 16z"/>
<path style="fill:#626262; stroke:none;" d="M198 16L198 17L203 17L198 16M219 16L219 17L223 17L219 16z"/>
<path style="fill:#a8a8a8; stroke:none;" d="M223 16L223 17L262 17C251.726 12.6888 234.172 16 223 16z"/>
<path style="fill:#626262; stroke:none;" d="M262.667 16.3333L263.333 16.6667L262.667 16.3333z"/>
<path style="fill:#a8a8a8; stroke:none;" d="M264 16L264 17L268 17L264 16M290 16L290 17L293 17L290 16M112.333 17.6667L112.667 18.3333L112.333 17.6667z"/>
<path style="fill:#626262; stroke:none;" d="M122 17L122 18L133 18L122 17z"/>
<path style="fill:#a8a8a8; stroke:none;" d="M133 17L133 18L142 18L133 17M201 17L201 18L205 18L201 17z"/>
<path style="fill:#626262; stroke:none;" d="M205 17L205 18L210 18L205 17M267 17L267 18L270 18L267 17z"/>
<path style="fill:#a8a8a8; stroke:none;" d="M270 17L270 18L288 18L270 17z"/>
<path style="fill:#626262; stroke:none;" d="M288 17L289 18L288 17z"/>
<path style="fill:#a8a8a8; stroke:none;" d="M289 17L290 18L289 17z"/>
<path style="fill:#626262; stroke:none;" d="M292.667 17.3333L293.333 17.6667L292.667 17.3333M118 18L119 19L118 18z"/>
<path style="fill:#a8a8a8; stroke:none;" d="M119 18L119 19L127 19L119 18M207 18L207 19L211 19L207 18z"/>
<path style="fill:#626262; stroke:none;" d="M211 18L211 19L216 19L211 18M275 18L275 19L281 19L275 18z"/>
<path style="fill:#a8a8a8; stroke:none;" d="M294.333 18.6667L294.667 19.3333L294.333 18.6667z"/>
<path style="fill:#626262; stroke:none;" d="M112 19L112 22L113 22L112 19z"/>
<path style="fill:#a8a8a8; stroke:none;" d="M118 19L118 24L119 24L118 19M213 19L213 20L217 20L213 19z"/>
<path style="fill:#626262; stroke:none;" d="M217 19L217 20L263 20C251.061 14.9902 230.003 19 217 19z"/>
<path style="fill:#a8a8a8; stroke:none;" d="M220 20L220 21L264 21C252.537 16.1897 232.48 20 220 20z"/>
<path style="fill:#626262; stroke:none;" d="M264 20L264 21L269 21L264 20M285 20L285 21L289 22L289 21L285 20M294 20L295 21L294 20z"/>
<path style="fill:#a8a8a8; stroke:none;" d="M266 21L266 22L273 22L266 21z"/>
<path style="fill:#626262; stroke:none;" d="M273 21L274 22L273 21z"/>
<path style="fill:#a8a8a8; stroke:none;" d="M274 21L275 22L274 21z"/>
<path style="fill:#626262; stroke:none;" d="M275 21L275 22L278 22L275 21z"/>
<path style="fill:#a8a8a8; stroke:none;" d="M278 21L278 22L287 24C288.608 19.7358 280.667 21 278 21z"/>
<path style="fill:#626262; stroke:none;" d="M294.333 22.6667L294.667 23.3333L294.333 22.6667M287 24L288 25L287 24z"/>
<path style="fill:#a8a8a8; stroke:none;" d="M294 24L295 25L294 24M111 25L111 32L112 32L111 25M286 26L287 27L286 26z"/>
<path style="fill:#626262; stroke:none;" d="M293 26L294 27L293 26M286.333 27.6667L286.667 28.3333L286.333 27.6667z"/>
<path style="fill:#a8a8a8; stroke:none;" d="M293.333 27.6667L293.667 28.3333L293.333 27.6667z"/>
<path style="fill:#626262; stroke:none;" d="M117 29L117 35L118 35L117 29z"/>
<path style="fill:#a8a8a8; stroke:none;" d="M285.333 29.6667L285.667 30.3333L285.333 29.6667z"/>
<path style="fill:#626262; stroke:none;" d="M292 30L293 31L292 30M285.333 31.6667L285.667 32.3333L285.333 31.6667z"/>
<path style="fill:#a8a8a8; stroke:none;" d="M292.333 31.6667L292.667 32.3333L292.333 31.6667z"/>
<path style="fill:#626262; stroke:none;" d="M111 32L111 35L112 35L111 32z"/>
<path style="fill:#a8a8a8; stroke:none;" d="M284.333 34.6667L284.667 35.3333L284.333 34.6667z"/>
<path style="fill:#626262; stroke:none;" d="M291.333 34.6667L291.667 35.3333L291.333 34.6667z"/>
<path style="fill:#a8a8a8; stroke:none;" d="M117 35L117 40L118 40L117 35z"/>
<path style="fill:#626262; stroke:none;" d="M284.333 36.6667L284.667 37.3333L284.333 36.6667z"/>
<path style="fill:#a8a8a8; stroke:none;" d="M291.333 36.6667L291.667 37.3333L291.333 36.6667M110.333 39.6667L110.667 40.3333L110.333 39.6667M283 39L283 42L284 42L283 39z"/>
<path style="fill:#626262; stroke:none;" d="M290.333 40.6667L290.667 41.3333L290.333 40.6667M110 41L110 45L111 45L110 41M116 42L116 46L117 46L116 42M283 42L283 45L284 45L283 42z"/>
<path style="fill:#a8a8a8; stroke:none;" d="M290 42L290 46L291 46L290 42M116 46L116 52L117 52L116 46M282 47L282 52L283 52L282 47z"/>
<path style="fill:#626262; stroke:none;" d="M289 48L289 53L290 53L289 48z"/>
<path style="fill:#a8a8a8; stroke:none;" d="M109 49L109 55L110 55L109 49z"/>
<path style="fill:#626262; stroke:none;" d="M282 52L282 60L283 60L282 52z"/>
<path style="fill:#a8a8a8; stroke:none;" d="M289 53L289 74L290 74L289 53z"/>
<path style="fill:#626262; stroke:none;" d="M109 55L109 59L110 59L109 55M115 56L115 62L116 62L115 56z"/>
<path style="fill:#a8a8a8; stroke:none;" d="M115 62L115 70L116 70L115 62M108 66L108 75L109 75L108 66M281 74L281 98L282 98L281 74z"/>
<path style="fill:#626262; stroke:none;" d="M108 75L108 83L109 83L108 75M114 78L114 86L115 86L114 78z"/>
<path style="fill:#a8a8a8; stroke:none;" d="M114 86L114 95L115 95L114 86M107 88L107 96L108 96L107 88z"/>
<path style="fill:#626262; stroke:none;" d="M107 96L107 99L108 99L107 96M113 97L113 100L114 100L113 97z"/>
<path style="fill:#f8cd49; stroke:none;" d="M281 98C276.762 101.086 270.982 98.4582 266 100.825C250.471 108.202 232.199 122.833 222.595 137C206.062 161.388 203.886 201.719 240 208.532C247.708 209.987 255.445 208.465 263 207C250.855 242.866 267.274 283.643 261.853 320C261.13 324.846 257.264 328.776 255.02 333C249.517 343.36 244.266 353.812 238.421 364C231.54 375.997 223.041 387.382 217.312 400C215.767 403.404 211.995 410.834 214.269 414.481C219.156 422.319 225.84 400.717 227.309 398C237.974 378.271 254.736 358.701 261 337L263 337C271.945 356.16 285.093 373.896 296 392C297.34 394.224 309.77 411.807 310.148 399.945C310.336 394.038 302.784 385.852 299.811 381C292.475 369.026 284.977 357.103 277.861 345C274.77 339.742 270.155 334.162 269.213 328C267.684 317.995 269.233 307.113 268.985 297C268.493 276.895 268 257.154 268 237C268 228.823 271.863 210.418 266 205C289.369 194.089 314.942 178.203 326.559 154C334.697 137.042 327.846 111.277 310 103.363C300.841 99.302 291.4 100.618 282 102L281 98z"/>
<path style="fill:#626262; stroke:none;" d="M288 99L284 100L284 101L289 100L288 99z"/>
<path style="fill:#a8a8a8; stroke:none;" d="M113 100L113 103L114 103L113 100M288 100L289 101L288 100M106 101L106 104L107 104L106 101M282 101L282 102L286 102L282 101z"/>
<path style="fill:#fdfdfc; stroke:none;" d="M276 107L276 103C268.246 103.515 263.078 108.995 257 113.279C240.879 124.642 221.73 139.773 219.17 161C218.25 168.626 216.313 178.498 218.653 186C222.217 197.426 238.573 205.857 250 205.82C259.635 205.789 268 200.004 276 195.427C294.763 184.694 312.64 172.983 323.101 153C330.76 138.368 324.855 115.246 310 107.442C298.416 101.356 287.823 106.999 276 107z"/>
<path style="fill:#626262; stroke:none;" d="M106.333 104.667L106.667 105.333L106.333 104.667z"/>
<path style="fill:#a8a8a8; stroke:none;" d="M287 104L286 106L288 106L287 104z"/>
<path style="fill:#626262; stroke:none;" d="M112 105L113 106L112 105z"/>
<path style="fill:#a8a8a8; stroke:none;" d="M112 106L112 109L113 109L112 106M105 107L106 108L105 107z"/>
<path style="fill:#626262; stroke:none;" d="M105 108L105 111L106 111L105 108M111 111L111 135L112 135L111 111z"/>
<path style="fill:#a8a8a8; stroke:none;" d="M104 117L104 135L105 135L104 117M112 148L112 157L113 157L112 148z"/>
<path style="fill:#626262; stroke:none;" d="M105 149L105 157L106 157L105 149z"/>
<path style="fill:#a8a8a8; stroke:none;" d="M105 157L105 195L106 195C106 184.089 109.211 167.036 105 157z"/>
<path style="fill:#626262; stroke:none;" d="M112 157L112 196L113 196C113 184.828 116.311 167.274 112 157M105 195L105 200L106 200L105 195z"/>
<path style="fill:#a8a8a8; stroke:none;" d="M112 196L112 204L113 204L112 196M104 205L104 211L105 211L104 205z"/>
<path style="fill:#fdfdfc; stroke:none;" d="M263 206L264 207L263 206z"/>
<path style="fill:#626262; stroke:none;" d="M111 209L111 213L112 213L111 209M104 211L104 214L105 214L104 211z"/>
<path style="fill:#a8a8a8; stroke:none;" d="M111 213L111 220L112 220L111 213M103 230L103 238L104 238L103 230z"/>
<path style="fill:#626262; stroke:none;" d="M110 236L110 242L111 242L110 236M103 238L103 244L104 244L103 238z"/>
<path style="fill:#a8a8a8; stroke:none;" d="M110 242L110 252L111 252L110 242M102 252L102 290L103 290C103 279.089 106.211 262.036 102 252z"/>
<path style="fill:#626262; stroke:none;" d="M109 268L109 291L110 291L109 268M103 298L103 309L104 309L103 298z"/>
<path style="fill:#a8a8a8; stroke:none;" d="M110 298L110 310L111 310L110 298M103 309L103 326L104 326L103 309z"/>
<path style="fill:#626262; stroke:none;" d="M110 310L110 326L111 326L110 310M104 337L104 397L105 397L105 356L104 337z"/>
<path style="fill:#a8a8a8; stroke:none;" d="M111 337L111 395L112 395L112 356L111 337z"/>
<path style="fill:#626262; stroke:none;" d="M110 398L110 401L111 401L110 398z"/>
<path style="fill:#a8a8a8; stroke:none;" d="M103 400L103 404L104 404L103 400M110 401L110 417L111 417L110 401z"/>
<path style="fill:#626262; stroke:none;" d="M103 404L103 416L104 416L103 404z"/>
<path style="fill:#a8a8a8; stroke:none;" d="M103 416L103 420L104 420L103 416z"/>
<path style="fill:#626262; stroke:none;" d="M110 417L110 422L111 422L110 417M104 424L104 427L105 427L104 424z"/>
<path style="fill:#a8a8a8; stroke:none;" d="M111 425L111 431L112 431L111 425M104 427L104 432L105 432L104 427z"/>
<path style="fill:#626262; stroke:none;" d="M111 431L111 434L112 434L111 431M105 436L105 439L106 439L105 436z"/>
<path style="fill:#a8a8a8; stroke:none;" d="M112 438L112 441L113 441L112 438M105 439L105 442L106 442L105 439z"/>
<path style="fill:#626262; stroke:none;" d="M112 441L112 444L113 444L112 441M106 446L106 456L107 456L106 446z"/>
<path style="fill:#a8a8a8; stroke:none;" d="M113 448L113 473L114 473L113 448M106 456L106 473L107 473L106 456z"/>
<path style="fill:#626262; stroke:none;" d="M113 473L113 486L114 486L113 473M107 486L107 509L69 509L69 510L108 510L107 486z"/>
<path style="fill:#a8a8a8; stroke:none;" d="M77 508L77 509L98 509L77 508M99 508L99 509L103 509L99 508M114 508L115 509L114 508M62 509L62 510L69 510L62 509z"/>
<path style="fill:#626262; stroke:none;" d="M114 509L114 510L124 510L114 509z"/>
<path style="fill:#a8a8a8; stroke:none;" d="M124 509L124 510L137 510L124 509M60 510L61 511L60 510z"/>
<path style="fill:#626262; stroke:none;" d="M61 510L62 511L61 510M135 510L135 511L142 511L135 510z"/>
<path style="fill:#a8a8a8; stroke:none;" d="M142 510L142 511L151 511L142 510M59.3333 511.667L59.6667 512.333L59.3333 511.667z"/>
<path style="fill:#626262; stroke:none;" d="M148 511L148 512L153 512L148 511z"/>
<path style="fill:#a8a8a8; stroke:none;" d="M153 511L153 512L161 512L153 511M168 511L168 512L176 513L176 512L168 511M178 511L179 512L178 511z"/>
<path style="fill:#626262; stroke:none;" d="M159 512L159 513L171 513L159 512M176 512L176 513L180 513L176 512M60 513L60 514L62 514L62 515L59 515L59 516L69 515L69 514L60 513z"/>
<path style="fill:#a8a8a8; stroke:none;" d="M180 513L180 514L187 514L180 513M60.6667 514.333L61.3333 514.667L60.6667 514.333z"/>
<path style="fill:#626262; stroke:none;" d="M180 514L180 515L183 515L180 514M186 514L187 515L186 514z"/>
<path style="fill:#a8a8a8; stroke:none;" d="M58 515L59 516L58 515M187.333 515.667L187.667 516.333L187.333 515.667z"/>
<path style="fill:#626262; stroke:none;" d="M184 517L185 518L184 517z"/>
<path style="fill:#a8a8a8; stroke:none;" d="M185.667 517.333L186.333 517.667L185.667 517.333z"/>
<path style="fill:#626262; stroke:none;" d="M58 518L58 519L62 521C63.0951 518.095 60.4499 518.12 58 518z"/>
<path style="fill:#a8a8a8; stroke:none;" d="M184 518L184 522L177 522L177 523C180.689 522.956 185.592 522.859 184 518M59 519L59 520L62 520L59 519M62 521L63 522L62 521z"/>
<path style="fill:#626262; stroke:none;" d="M95 521L95 522L107 523L95 521z"/>
<path style="fill:#a8a8a8; stroke:none;" d="M171.667 521.333L172.333 521.667L171.667 521.333z"/>
<path style="fill:#626262; stroke:none;" d="M173 521L173 522L181 522L173 521M183 521L184 522L183 521z"/>
<path style="fill:#a8a8a8; stroke:none;" d="M63 522L64 523L63 522z"/>
<path style="fill:#626262; stroke:none;" d="M64.6667 522.333L65.3333 522.667L64.6667 522.333M81 522L81 523L90 523L81 522z"/>
<path style="fill:#a8a8a8; stroke:none;" d="M74 523L74 524L104 523L74 523z"/>
<path style="fill:#626262; stroke:none;" d="M165 523L165 524L171 523L165 523z"/>
<path style="fill:#a8a8a8; stroke:none;" d="M65 523L65 524L79 526L79 525L65 523z"/>
<path style="fill:#626262; stroke:none;" d="M68 523L69 524L68 523M69 524L69 525L74 524L69 524M94 523L94 524L99 524L94 523z"/>
<path style="fill:#a8a8a8; stroke:none;" d="M169 523L170 524L169 523z"/>
<path style="fill:#fdfdfc; stroke:none;" d="M71 524L71 525L82 525L71 524z"/>
<path style="fill:#626262; stroke:none;" d="M87 524L87 525L91 525L87 524M115 524L115 525L123 525L115 524z"/>
<path style="fill:#a8a8a8; stroke:none;" d="M123 524L123 525L128 525L123 524z"/>
<path style="fill:#626262; stroke:none;" d="M128 524L128 525L138 525L128 524M157 524L157 525L163 525L157 524z"/>
<path style="fill:#a8a8a8; stroke:none;" d="M163 524L163 525L167 525L163 524z"/>
<path style="fill:#626262; stroke:none;" d="M79 525L79 526L83 526L79 525M104 525L104 526L112 526L104 525z"/>
<path style="fill:#a8a8a8; stroke:none;" d="M112 525L112 526L118 526L112 525M132 525L132 526L160 526L132 525M64 526L64 527L67 527L64 526z"/>
<path style="fill:#626262; stroke:none;" d="M67 526L67 527L72 527L67 526M95 526L95 527L101 527L95 526z"/>
<path style="fill:#a8a8a8; stroke:none;" d="M101 526L101 527L107 527L101 526z"/>
<path style="fill:#626262; stroke:none;" d="M63 527L64 528L63 527M88 527L88 528L93 528L88 527z"/>
<path style="fill:#a8a8a8; stroke:none;" d="M93 527L93 528L97 528L93 527M62 528L63 529L62 528z"/>
<path style="fill:#626262; stroke:none;" d="M83 528L83 529L87 529L83 528z"/>
<path style="fill:#a8a8a8; stroke:none;" d="M87 528L87 529L90 529L87 528z"/>
<path style="fill:#626262; stroke:none;" d="M62 529L64 531L62 529M78 529L78 530L81 530L78 529z"/>
<path style="fill:#a8a8a8; stroke:none;" d="M81 529L81 530L85 530L81 529M62 530L63 531L62 530z"/>
<path style="fill:#626262; stroke:none;" d="M70 530L70 531L76 531L70 530z"/>
<path style="fill:#a8a8a8; stroke:none;" d="M76 530L76 531L80 531L76 530M63 531L63 532L73 532L63 531z"/>
</svg>
