<?xml version="1.0" standalone="yes"?>
<svg xmlns="http://www.w3.org/2000/svg" width="635" height="635">
<path style="fill:#fdfdfd; stroke:none;" d="M0 0L0 635L635 635L635 0L0 0z"/>
<path style="fill:#a0a0a0; stroke:none;" d="M115 90L116 91L115 90z"/>
<path style="fill:#5e5e5e; stroke:none;" d="M116 90L118 92L116 90z"/>
<path style="fill:#a0a0a0; stroke:none;" d="M117 90L118 91L117 90M160 90L160 91L165 91L160 90z"/>
<path style="fill:#5e5e5e; stroke:none;" d="M165 90L165 91L189 91L165 90z"/>
<path style="fill:#a0a0a0; stroke:none;" d="M189 90L189 91L192 91L189 90z"/>
<path style="fill:#f8cd49; stroke:none;" d="M192 90L193 91L192 90M113 91L114 92L113 91z"/>
<path style="fill:#5e5e5e; stroke:none;" d="M114 91L115 92L114 91z"/>
<path style="fill:#272726; stroke:none;" d="M115 91C109.144 102.964 111.077 119.909 109.83 133C106.633 166.572 104.485 200.299 105.961 234C107.309 264.782 103.369 295.324 103.004 326C102.36 380.112 105.545 434.015 103.594 488C102.725 512.044 106.716 536.801 107.004 561C107.088 568.091 110.581 579.047 107.397 585.732C105.582 589.542 98.4087 588.001 95 588C87.3308 587.998 64.3752 585.251 60 592L68 593L58 595L58 597L63 597L63 601L106 600L106 601C96.9119 603.164 86.3491 604.266 77 604.911C71.6844 605.277 65.4231 604.199 62 609L103 604.17L159 602.961L183 600L186 593C168.385 592.502 150.656 589.447 133 589.015C128.347 588.901 117.006 591.145 114.028 586.682C109.293 579.587 113.631 562.415 112.83 554C109.664 520.728 110 487.358 110 454C110 367.409 109.53 281.051 110.861 194.576C111.361 162.095 117 129.572 117 97C174.175 89.7742 230.788 99.1578 288 99C284.009 126.148 282 151.395 282 179L288 179C288 160.382 287.066 141.502 289.285 123C290.328 114.308 295.874 103.191 292 95C280.329 97.7798 269.692 95.0188 258 95C225.428 94.9476 193.565 90.6166 161 91.0038C150.682 91.1265 140.333 92.676 130 93.054C124.959 93.2384 120.951 94.6901 117 91L115 91z"/>
<path style="fill:#f8cd49; stroke:none;" d="M118 91L119 92L118 91z"/>
<path style="fill:#a0a0a0; stroke:none;" d="M146 91L146 92L151 92L146 91z"/>
<path style="fill:#5e5e5e; stroke:none;" d="M151 91L151 92L155 92L151 91M196 91L196 92L199 92L196 91z"/>
<path style="fill:#a0a0a0; stroke:none;" d="M199 91L199 92L202 92L199 91z"/>
<path style="fill:#f8cd49; stroke:none;" d="M202 91L203 92L202 91z"/>
<path style="fill:#a0a0a0; stroke:none;" d="M113 92L114 93L113 92M118.333 92.6667L118.667 93.3333L118.333 92.6667M133 92L133 93L139 93L133 92z"/>
<path style="fill:#5e5e5e; stroke:none;" d="M139 92L139 93L142 93L139 92M205.667 92.3333L206.333 92.6667L205.667 92.3333z"/>
<path style="fill:#a0a0a0; stroke:none;" d="M207.667 92.3333L208.333 92.6667L207.667 92.3333z"/>
<path style="fill:#f8cd49; stroke:none;" d="M209 92L210 93L209 92z"/>
<path style="fill:#5e5e5e; stroke:none;" d="M113 93L114 94L113 93z"/>
<path style="fill:#f8cd49; stroke:none;" d="M119 93L120 94L119 93z"/>
<path style="fill:#a0a0a0; stroke:none;" d="M120.667 93.3333L121.333 93.6667L120.667 93.3333z"/>
<path style="fill:#5e5e5e; stroke:none;" d="M122.667 93.3333L123.333 93.6667L122.667 93.3333M125.667 93.3333L126.333 93.6667L125.667 93.3333M161 93L161 94L186 94L161 93M212 93L213 94L212 93z"/>
<path style="fill:#a0a0a0; stroke:none;" d="M213 93L213 94L216 94L213 93M112.333 94.6667L112.667 95.3333L112.333 94.6667z"/>
<path style="fill:#5e5e5e; stroke:none;" d="M148 94L148 95L152 95L148 94z"/>
<path style="fill:#a0a0a0; stroke:none;" d="M152 94L152 95L157 95L152 94M189 94L189 95L193 95L189 94z"/>
<path style="fill:#5e5e5e; stroke:none;" d="M193 94L193 95L196 95L193 94M218.667 94.3333L219.333 94.6667L218.667 94.3333z"/>
<path style="fill:#a0a0a0; stroke:none;" d="M220.667 94.3333L221.333 94.6667L220.667 94.3333z"/>
<path style="fill:#f8cd49; stroke:none;" d="M222 94L223 95L222 94z"/>
<path style="fill:#a0a0a0; stroke:none;" d="M262 94L263 95L262 94z"/>
<path style="fill:#f8cd49; stroke:none;" d="M263 94L264 95L263 94z"/>
<path style="fill:#5e5e5e; stroke:none;" d="M134 95L134 96L138 96L134 95z"/>
<path style="fill:#a0a0a0; stroke:none;" d="M138 95L138 96L143 96L138 95M199 95L199 96L202 96L199 95z"/>
<path style="fill:#5e5e5e; stroke:none;" d="M202.667 95.3333L203.333 95.6667L202.667 95.3333M266 95L267 96L266 95z"/>
<path style="fill:#a0a0a0; stroke:none;" d="M267.667 95.3333L268.333 95.6667L267.667 95.3333z"/>
<path style="fill:#f8cd49; stroke:none;" d="M288 95L289 96L288 95z"/>
<path style="fill:#a0a0a0; stroke:none;" d="M289 95L290 96L289 95z"/>
<path style="fill:#5e5e5e; stroke:none;" d="M290 95L291 96L290 95M292 95L293 98L294 98L292 95z"/>
<path style="fill:#a0a0a0; stroke:none;" d="M293 95L294 96L293 95z"/>
<path style="fill:#5e5e5e; stroke:none;" d="M112 96L112 99L113 99L112 96M120.667 96.3333L121.333 96.6667L120.667 96.3333z"/>
<path style="fill:#a0a0a0; stroke:none;" d="M122 96L122 97L129 97L122 96z"/>
<path style="fill:#f8cd49; stroke:none;" d="M129 96L130 97L129 96M205 96L206 97L205 96z"/>
<path style="fill:#a0a0a0; stroke:none;" d="M206 96L206 97L209 97L206 96z"/>
<path style="fill:#5e5e5e; stroke:none;" d="M209 96L210 97L209 96M274 96L274 97L278 97L274 96z"/>
<path style="fill:#a0a0a0; stroke:none;" d="M278 96L279 97L278 96z"/>
<path style="fill:#5e5e5e; stroke:none;" d="M279 96L279 97L282 97L279 96z"/>
<path style="fill:#f8cd49; stroke:none;" d="M111 97L112 98L111 97z"/>
<path style="fill:#5e5e5e; stroke:none;" d="M117 97L117 104L118 104L117 97z"/>
<path style="fill:#a0a0a0; stroke:none;" d="M118.333 97.6667L118.667 98.3333L118.333 97.6667M212 97L212 98L215 98L212 97z"/>
<path style="fill:#5e5e5e; stroke:none;" d="M215 97L216 98L215 97z"/>
<path style="fill:#a0a0a0; stroke:none;" d="M294.333 97.6667L294.667 98.3333L294.333 97.6667M111 98L111 104L112 104L111 98z"/>
<path style="fill:#f8cd49; stroke:none;" d="M218 98L219 99L218 98z"/>
<path style="fill:#a0a0a0; stroke:none;" d="M219 98L219 99L262 99C250.775 94.2895 231.219 98 219 98z"/>
<path style="fill:#5e5e5e; stroke:none;" d="M262 98L263 99L262 98z"/>
<path style="fill:#f8cd49; stroke:none;" d="M118 99L119 100L118 99z"/>
<path style="fill:#a0a0a0; stroke:none;" d="M265 99L265 100L268 100L265 99z"/>
<path style="fill:#5e5e5e; stroke:none;" d="M268 99L268 100L272 100L268 99M279 99L279 100L285 100L279 99z"/>
<path style="fill:#a0a0a0; stroke:none;" d="M285 99L285 100L288 101L285 99z"/>
<path style="fill:#5e5e5e; stroke:none;" d="M294.333 99.6667L294.667 100.333L294.333 99.6667M287.333 101.667L287.667 102.333L287.333 101.667z"/>
<path style="fill:#a0a0a0; stroke:none;" d="M294.333 101.667L294.667 102.333L294.333 101.667z"/>
<path style="fill:#5e5e5e; stroke:none;" d="M293 102L293 105L294 105L293 102z"/>
<path style="fill:#a0a0a0; stroke:none;" d="M286.333 103.667L286.667 104.333L286.333 103.667z"/>
<path style="fill:#5e5e5e; stroke:none;" d="M111 104L111 112L112 112L111 104z"/>
<path style="fill:#a0a0a0; stroke:none;" d="M117 104L117 115L118 115L117 104z"/>
<path style="fill:#5e5e5e; stroke:none;" d="M286 105L287 106L286 105z"/>
<path style="fill:#a0a0a0; stroke:none;" d="M293 105L294 106L293 105z"/>
<path style="fill:#f8cd49; stroke:none;" d="M285 106L286 107L285 106z"/>
<path style="fill:#5e5e5e; stroke:none;" d="M292 106L292 109L293 109L292 106z"/>
<path style="fill:#f8cd49; stroke:none;" d="M293 106L294 107L293 106z"/>
<path style="fill:#a0a0a0; stroke:none;" d="M285.333 107.667L285.667 108.333L285.333 107.667z"/>
<path style="fill:#f8cd49; stroke:none;" d="M110 109L111 110L110 109z"/>
<path style="fill:#5e5e5e; stroke:none;" d="M285.333 109.667L285.667 110.333L285.333 109.667z"/>
<path style="fill:#a0a0a0; stroke:none;" d="M292.333 109.667L292.667 110.333L292.333 109.667M110 110L110 118L111 118L110 110z"/>
<path style="fill:#f8cd49; stroke:none;" d="M284 110L285 111L284 110z"/>
<path style="fill:#5e5e5e; stroke:none;" d="M291 110L291 113L292 113L291 110z"/>
<path style="fill:#a0a0a0; stroke:none;" d="M284.333 111.667L284.667 112.333L284.333 111.667z"/>
<path style="fill:#5e5e5e; stroke:none;" d="M116 112L116 120L117 120L116 112M284.333 113.667L284.667 114.333L284.333 113.667z"/>
<path style="fill:#a0a0a0; stroke:none;" d="M291.333 113.667L291.667 114.333L291.333 113.667z"/>
<path style="fill:#5e5e5e; stroke:none;" d="M290 114L290 119L291 119L290 114z"/>
<path style="fill:#f8cd49; stroke:none;" d="M117.333 115.667L117.667 116.333L117.333 115.667M283 115L284 116L283 115z"/>
<path style="fill:#a0a0a0; stroke:none;" d="M283 116L283 119L284 119L283 116z"/>
<path style="fill:#5e5e5e; stroke:none;" d="M110 118L110 123L111 123L110 118z"/>
<path style="fill:#f8cd49; stroke:none;" d="M109 119L110 120L109 119z"/>
<path style="fill:#5e5e5e; stroke:none;" d="M283 119L283 122L284 122L283 119z"/>
<path style="fill:#a0a0a0; stroke:none;" d="M290 119L290 122L291 122L290 119M109 120L109 129L110 129L109 120M116 120L116 126L117 126L116 120z"/>
<path style="fill:#5e5e5e; stroke:none;" d="M289 121L289 128L290 128L289 121z"/>
<path style="fill:#f8cd49; stroke:none;" d="M282 122L283 123L282 122M290 122L291 123L290 122z"/>
<path style="fill:#a0a0a0; stroke:none;" d="M282 123L282 129L283 129L282 123z"/>
<path style="fill:#5e5e5e; stroke:none;" d="M115 124L115 133L116 133L115 124z"/>
<path style="fill:#f8cd49; stroke:none;" d="M116.333 126.667L116.667 127.333L116.333 126.667z"/>
<path style="fill:#a0a0a0; stroke:none;" d="M289 128L289 137L290 137L289 128z"/>
<path style="fill:#5e5e5e; stroke:none;" d="M109 129L109 136L110 136L109 129M282 129L282 135L283 135L282 129z"/>
<path style="fill:#f8cd49; stroke:none;" d="M108 132L109 133L108 132z"/>
<path style="fill:#5e5e5e; stroke:none;" d="M288 132L288 179L289 179C289 165.735 293.109 144.177 288 132z"/>
<path style="fill:#a0a0a0; stroke:none;" d="M108 133L108 147L109 147L108 133M115 133L115 145L116 145L115 133z"/>
<path style="fill:#f8cd49; stroke:none;" d="M281 134L281 137L282 137L281 134z"/>
<path style="fill:#a0a0a0; stroke:none;" d="M281 137L281 180L282 180C282 167.781 285.71 148.226 281 137z"/>
<path style="fill:#f8cd49; stroke:none;" d="M289.333 137.667L289.667 138.333L289.333 137.667z"/>
<path style="fill:#5e5e5e; stroke:none;" d="M114 138L114 155L115 155L114 138z"/>
<path style="fill:#f8cd49; stroke:none;" d="M115 145L116 146L115 145z"/>
<path style="fill:#5e5e5e; stroke:none;" d="M108 147L108 157L109 157L108 147z"/>
<path style="fill:#f8cd49; stroke:none;" d="M107 150L107 154L108 154L107 150z"/>
<path style="fill:#a0a0a0; stroke:none;" d="M107 154L107 172L108 172L107 154M114 155L114 167L115 167L114 155z"/>
<path style="fill:#5e5e5e; stroke:none;" d="M113 163L113 175L114 175L113 163z"/>
<path style="fill:#f8cd49; stroke:none;" d="M114 167L115 168L114 167z"/>
<path style="fill:#5e5e5e; stroke:none;" d="M107 172L107 177L108 177L107 172z"/>
<path style="fill:#f8cd49; stroke:none;" d="M106 174L107 175L106 174z"/>
<path style="fill:#a0a0a0; stroke:none;" d="M106 175L106 181L107 181L106 175M113 175L113 180L114 180L113 175z"/>
<path style="fill:#5e5e5e; stroke:none;" d="M112 178L112 183L113 183L112 178z"/>
<path style="fill:#f8cd49; stroke:none;" d="M263 285C258.058 298.1 260.005 313.224 260 327C259.99 354.024 261.223 381.01 261 408C253.543 410.117 250.574 419.607 247.223 426C238.965 441.756 229.159 456.53 220.424 472C218.102 476.114 210.209 488.888 214.642 493.377C220.126 498.931 225.619 479.125 227.309 476C238.539 455.225 254.338 435.501 262 413L267 415C272.492 397.398 268.327 376.077 267.09 358C266.105 343.625 267.977 329.302 268 315C268.011 308.073 271.522 287.997 266 284C275.728 277.053 287.369 273.052 297 266.073C304.592 260.572 309.209 253.981 315.17 247C319.759 241.626 325.61 236.035 327.481 229C332.097 211.644 327.451 189.205 309 181.634C300.636 178.203 292.624 179.849 284 179.455C276.319 179.105 270.364 176.448 263 180.598C242.541 192.129 220.842 210.039 213.36 233C204.79 259.297 214.927 284.965 245 287.829C251.197 288.419 257.05 286.361 263 285z"/>
<path style="fill:#5e5e5e; stroke:none;" d="M282.667 179.333L283.333 179.667L282.667 179.333z"/>
<path style="fill:#a0a0a0; stroke:none;" d="M284.667 179.333L285.333 179.667L284.667 179.333z"/>
<path style="fill:#f8cd49; stroke:none;" d="M113 180L114 181L113 180z"/>
<path style="fill:#5e5e5e; stroke:none;" d="M106.333 181.667L106.667 182.333L106.333 181.667z"/>
<path style="fill:#fdfdfd; stroke:none;" d="M276 181C263.567 182.864 252.581 194.657 243 202.182C235.034 208.439 229.572 215.069 224.695 224C211.777 247.66 215.107 283.513 249 283.981C259.436 284.126 268.264 278.248 277 273.281C298.879 260.842 334.388 236.386 324.945 206C321.191 193.918 311.705 184.441 299 183.171C292.4 182.511 278.486 189.006 276 181z"/>
<path style="fill:#a0a0a0; stroke:none;" d="M105 182L105 186L106 186L105 182M112 183L112 186L113 186L112 183M285 183L285 184L288 184L285 183z"/>
<path style="fill:#5e5e5e; stroke:none;" d="M111 184L111 188L112 188L111 184z"/>
<path style="fill:#f8cd49; stroke:none;" d="M104 186L105 187L104 186z"/>
<path style="fill:#5e5e5e; stroke:none;" d="M105.333 186.667L105.667 187.333L105.333 186.667z"/>
<path style="fill:#a0a0a0; stroke:none;" d="M104 187L104 235L105 235C105 221.474 109.209 199.414 104 187M111 188L111 214L112 214L111 188z"/>
<path style="fill:#5e5e5e; stroke:none;" d="M110 195L111 196L110 195M111 214L111 237L112 237L111 214z"/>
<path style="fill:#f8cd49; stroke:none;" d="M112 228L113 229L112 228z"/>
<path style="fill:#5e5e5e; stroke:none;" d="M105 229L105 277L106 277C106 263.474 110.209 241.414 105 229z"/>
<path style="fill:#a0a0a0; stroke:none;" d="M112 229L112 278L113 278C113 264.212 117.309 241.652 112 229z"/>
<path style="fill:#f8cd49; stroke:none;" d="M104.333 235.667L104.667 236.333L104.333 235.667M104 273L105 274L104 273z"/>
<path style="fill:#5e5e5e; stroke:none;" d="M111 273L111 286L112 286L111 273z"/>
<path style="fill:#a0a0a0; stroke:none;" d="M104 274L104 286L105 286L104 274z"/>
<path style="fill:#5e5e5e; stroke:none;" d="M104 286L104 291L105 291L104 286z"/>
<path style="fill:#a0a0a0; stroke:none;" d="M111 286L111 293L112 293L111 286M103 289L103 311L104 311L103 289z"/>
<path style="fill:#5e5e5e; stroke:none;" d="M110 290L110 313L111 313L110 290M103 311L103 320L104 320L103 311z"/>
<path style="fill:#a0a0a0; stroke:none;" d="M110 313L110 323L111 323L110 313z"/>
<path style="fill:#f8cd49; stroke:none;" d="M102 315L103 316L102 315z"/>
<path style="fill:#a0a0a0; stroke:none;" d="M102 316L102 336L103 336L102 316z"/>
<path style="fill:#5e5e5e; stroke:none;" d="M109 319L109 337L110 337L109 319z"/>
<path style="fill:#f8cd49; stroke:none;" d="M110 323L110 326L111 326L110 323z"/>
<path style="fill:#5e5e5e; stroke:none;" d="M102 336L102 350L103 350L102 336z"/>
<path style="fill:#a0a0a0; stroke:none;" d="M109 337L109 370L110 370L109 337M102 350L102 387L103 387C103 376.351 106.111 359.798 102 350z"/>
<path style="fill:#5e5e5e; stroke:none;" d="M109 370L109 390L110 390L109 370M103 378L103 403L104 403L103 378z"/>
<path style="fill:#f8cd49; stroke:none;" d="M110 379L110 387L111 387L110 379M102 387L103 388L102 387z"/>
<path style="fill:#a0a0a0; stroke:none;" d="M110 387L110 406L111 406L110 387M103 403L103 480L104 480L104 427L103 403z"/>
<path style="fill:#5e5e5e; stroke:none;" d="M110 406L110 476L111 476L111 428L110 406M104 418L105 419L104 418z"/>
<path style="fill:#f8cd49; stroke:none;" d="M111.333 419.667L111.667 420.333L111.333 419.667z"/>
<path style="fill:#5e5e5e; stroke:none;" d="M104 422L105 423L104 422z"/>
<path style="fill:#f8cd49; stroke:none;" d="M111.333 424.667L111.667 425.333L111.333 424.667z"/>
<path style="fill:#5e5e5e; stroke:none;" d="M104.333 427.667L104.667 428.333L104.333 427.667z"/>
<path style="fill:#f8cd49; stroke:none;" d="M111 428L112 429L111 428z"/>
<path style="fill:#5e5e5e; stroke:none;" d="M104 431L104 439L105 439L104 431M104.333 440.667L104.667 441.333L104.333 440.667M104.333 445.667L104.667 446.333L104.333 445.667M104 449L104 474L105 474L104 449z"/>
<path style="fill:#a0a0a0; stroke:none;" d="M110 476L110 482L111 482L110 476z"/>
<path style="fill:#5e5e5e; stroke:none;" d="M109 479L109 497L110 497L109 479M103 480L103 488L104 488L103 480z"/>
<path style="fill:#f8cd49; stroke:none;" d="M102 482L103 483L102 482M110 482L111 483L110 482z"/>
<path style="fill:#a0a0a0; stroke:none;" d="M102 483L102 495L103 495L102 483z"/>
<path style="fill:#5e5e5e; stroke:none;" d="M103 490L103 497L104 497L103 490z"/>
<path style="fill:#f8cd49; stroke:none;" d="M110 494L111 495L110 494z"/>
<path style="fill:#a0a0a0; stroke:none;" d="M110 495L110 502L111 502L110 495M103 497L103 505L104 505L103 497z"/>
<path style="fill:#5e5e5e; stroke:none;" d="M110 502L110 510L111 510L110 502M104 504L104 510L105 510L104 504z"/>
<path style="fill:#f8cd49; stroke:none;" d="M103 505L103 508L104 508L103 505M111 505L112 506L111 505z"/>
<path style="fill:#a0a0a0; stroke:none;" d="M111 506L111 513L112 513L111 506M104 510L104 518L105 518L104 510z"/>
<path style="fill:#5e5e5e; stroke:none;" d="M111 513L111 520L112 520L111 513M105 516L105 520L106 520L105 516z"/>
<path style="fill:#a0a0a0; stroke:none;" d="M112 518L112 524L113 524L112 518M105 520L105 535L106 535L105 520z"/>
<path style="fill:#5e5e5e; stroke:none;" d="M112 524L112 552L113 552L112 524M106 526L106 550L107 550L106 526z"/>
<path style="fill:#f8cd49; stroke:none;" d="M105 535L106 536L105 535M113 535L114 536L113 535z"/>
<path style="fill:#a0a0a0; stroke:none;" d="M113 536L113 566L114 566L113 536M106 550L106 587L68 587L68 588L107 588C107 577.089 110.211 560.036 106 550z"/>
<path style="fill:#5e5e5e; stroke:none;" d="M113 566C113 570.718 110.632 584.827 114.603 587.972C118.454 591.022 129.25 589 134 589L134 588L114 588L113 566M107 567L107 588L108 588L107 567z"/>
<path style="fill:#f8cd49; stroke:none;" d="M67 587L68 588L67 587z"/>
<path style="fill:#a0a0a0; stroke:none;" d="M114 587L114 588L124 588L114 587z"/>
<path style="fill:#f8cd49; stroke:none;" d="M124 587L125 588L124 587z"/>
<path style="fill:#a0a0a0; stroke:none;" d="M58 591L62 589L58 591z"/>
<path style="fill:#5e5e5e; stroke:none;" d="M62 588L62 589L76 589L62 588M104.667 588.333L105.333 588.667L104.667 588.333z"/>
<path style="fill:#a0a0a0; stroke:none;" d="M134 588L134 589L142 589L134 588z"/>
<path style="fill:#f8cd49; stroke:none;" d="M142 588L143 589L142 588z"/>
<path style="fill:#5e5e5e; stroke:none;" d="M60 589L61 590L60 589M138 589L138 590L147 590L138 589z"/>
<path style="fill:#a0a0a0; stroke:none;" d="M147 589L147 590L153 590L147 589z"/>
<path style="fill:#f8cd49; stroke:none;" d="M153 589L154 590L153 589z"/>
<path style="fill:#5e5e5e; stroke:none;" d="M59.3333 590.667L59.6667 591.333L59.3333 590.667M151 590L151 591L158 591L151 590z"/>
<path style="fill:#a0a0a0; stroke:none;" d="M158 590L158 591L171 591L158 590M175 590L175 591L184 593L175 590z"/>
<path style="fill:#5e5e5e; stroke:none;" d="M162 591L163 592L162 591M165.667 591.333L166.333 591.667L165.667 591.333M170 591L170 592L177 592L170 591M178 591L179 592L178 591z"/>
<path style="fill:#a0a0a0; stroke:none;" d="M59 593L59 594L63 594L59 593z"/>
<path style="fill:#5e5e5e; stroke:none;" d="M61 592L61 593L63 593L63 594L58 594L58 595L68 593L61 592M179 592L180 593L179 592M184 592L185 593L184 592z"/>
<path style="fill:#a0a0a0; stroke:none;" d="M185.667 592.333L186.333 592.667L185.667 592.333z"/>
<path style="fill:#f8cd49; stroke:none;" d="M58 593L59 594L58 593z"/>
<path style="fill:#5e5e5e; stroke:none;" d="M186 593L185 596L186 593z"/>
<path style="fill:#a0a0a0; stroke:none;" d="M57 594L57 597L58 597L57 594M186 595L187 596L186 595z"/>
<path style="fill:#5e5e5e; stroke:none;" d="M183 596L183 600L178 600L178 601C181.451 600.732 184.28 599.906 183 596z"/>
<path style="fill:#a0a0a0; stroke:none;" d="M184 596L185 597L184 596z"/>
<path style="fill:#f8cd49; stroke:none;" d="M185 596L186 597L185 596z"/>
<path style="fill:#a0a0a0; stroke:none;" d="M58 597L58 598L62 599L62 598L58 597z"/>
<path style="fill:#5e5e5e; stroke:none;" d="M61 597L62 600L63 600L63 597L61 597z"/>
<path style="fill:#a0a0a0; stroke:none;" d="M184.333 598.667L184.667 599.333L184.333 598.667z"/>
<path style="fill:#f8cd49; stroke:none;" d="M61 599L62 600L61 599z"/>
<path style="fill:#5e5e5e; stroke:none;" d="M168 601L168 602L173 600L168 601z"/>
<path style="fill:#a0a0a0; stroke:none;" d="M62 600L63 601L62 600z"/>
<path style="fill:#5e5e5e; stroke:none;" d="M90 600L90 601L106 601L90 600z"/>
<path style="fill:#a0a0a0; stroke:none;" d="M97 600L97 601L103 601L97 600M171 600L171 601L178 601L171 600M183 600L184 601L183 600M63.6667 601.333L64.3333 601.667L63.6667 601.333z"/>
<path style="fill:#5e5e5e; stroke:none;" d="M65 601L65 602L71 603L71 602L65 601M73 601L73 602L83 602L73 601z"/>
<path style="fill:#a0a0a0; stroke:none;" d="M83 601L83 602L96 602L83 601z"/>
<path style="fill:#f8cd49; stroke:none;" d="M90 601L91 602L90 601z"/>
<path style="fill:#a0a0a0; stroke:none;" d="M170 601L171 602L170 601z"/>
<path style="fill:#f8cd49; stroke:none;" d="M66 602L67 603L66 602z"/>
<path style="fill:#a0a0a0; stroke:none;" d="M67 602L68 603L67 602M66 604L66 605L72 605L74 603L66 604z"/>
<path style="fill:#f8cd49; stroke:none;" d="M74 602L75 603L74 602z"/>
<path style="fill:#fdfdfd; stroke:none;" d="M71 603L71 604L85 603L71 603z"/>
<path style="fill:#f8cd49; stroke:none;" d="M85 602L86 603L85 602z"/>
<path style="fill:#5e5e5e; stroke:none;" d="M91 602L91 603L95 603L91 602M123 602L123 603L127 603L123 602M163 602L163 603L166 603L163 602z"/>
<path style="fill:#a0a0a0; stroke:none;" d="M166.667 602.333L167.333 602.667L166.667 602.333z"/>
<path style="fill:#f8cd49; stroke:none;" d="M168 602L169 603L168 602z"/>
<path style="fill:#a0a0a0; stroke:none;" d="M78 603L78 604L84 604L78 603z"/>
<path style="fill:#5e5e5e; stroke:none;" d="M84 603L84 604L88 604L84 603M112 603L112 604L117 604L112 603z"/>
<path style="fill:#a0a0a0; stroke:none;" d="M117 603L117 604L124 604L117 603z"/>
<path style="fill:#f8cd49; stroke:none;" d="M124 603L124 604L127 604L124 603z"/>
<path style="fill:#a0a0a0; stroke:none;" d="M127 603L127 604L137 604L127 603z"/>
<path style="fill:#5e5e5e; stroke:none;" d="M137 603L137 604L158 604L137 603z"/>
<path style="fill:#a0a0a0; stroke:none;" d="M158 603L158 604L163 604L158 603z"/>
<path style="fill:#f8cd49; stroke:none;" d="M163.667 603.333L164.333 603.667L163.667 603.333z"/>
<path style="fill:#5e5e5e; stroke:none;" d="M72 604L72 605L81 605L72 604M100 604L100 605L105 605L100 604z"/>
<path style="fill:#a0a0a0; stroke:none;" d="M105 604L105 605L112 605L105 604z"/>
<path style="fill:#f8cd49; stroke:none;" d="M112.667 604.333L113.333 604.667L112.667 604.333M139.667 604.333L140.333 604.667L139.667 604.333M145.667 604.333L146.333 604.667L145.667 604.333z"/>
<path style="fill:#a0a0a0; stroke:none;" d="M63 605L64 606L63 605z"/>
<path style="fill:#5e5e5e; stroke:none;" d="M64 605L64 606L68 606L64 605M93.6667 605.333L94.3333 605.667L93.6667 605.333z"/>
<path style="fill:#a0a0a0; stroke:none;" d="M95 605L95 606L101 606L95 605z"/>
<path style="fill:#f8cd49; stroke:none;" d="M101.667 605.333L102.333 605.667L101.667 605.333z"/>
<path style="fill:#a0a0a0; stroke:none;" d="M62 606L61 609L62 609L62 606z"/>
<path style="fill:#5e5e5e; stroke:none;" d="M87.6667 606.333L88.3333 606.667L87.6667 606.333z"/>
<path style="fill:#a0a0a0; stroke:none;" d="M89 606L89 607L93 607L89 606z"/>
<path style="fill:#f8cd49; stroke:none;" d="M93 606L94 607L93 606z"/>
<path style="fill:#5e5e5e; stroke:none;" d="M62 607L63 608L62 607M81 607L81 608L84 608L81 607z"/>
<path style="fill:#a0a0a0; stroke:none;" d="M84 607L84 608L87 608L84 607z"/>
<path style="fill:#f8cd49; stroke:none;" d="M87 607L88 608L87 607z"/>
<path style="fill:#5e5e5e; stroke:none;" d="M76.6667 608.333L77.3333 608.667L76.6667 608.333z"/>
<path style="fill:#a0a0a0; stroke:none;" d="M78 608L78 609L81 609L78 608z"/>
<path style="fill:#f8cd49; stroke:none;" d="M81 608L82 609L81 608z"/>
<path style="fill:#a0a0a0; stroke:none;" d="M62 609L63 610L62 609z"/>
<path style="fill:#5e5e5e; stroke:none;" d="M63 609L63 610L72 610L63 609z"/>
<path style="fill:#a0a0a0; stroke:none;" d="M72 609L72 610L76 610L72 609z"/>
<path style="fill:#f8cd49; stroke:none;" d="M76 609L77 610L76 609M64 610L64 611L69 611L64 610z"/>
</svg>
