<?xml version="1.0" standalone="yes"?>
<svg xmlns="http://www.w3.org/2000/svg" width="578" height="578">
<path style="fill:#fdfdfd; stroke:none;" d="M0 0L0 578L578 578L578 0L0 0z"/>
<path style="fill:#a3a3a3; stroke:none;" d="M114 32L114 33L118 32L114 32M162 31L162 32L191 32L162 31z"/>
<path style="fill:#f7cd4c; stroke:none;" d="M191 31L192 32L191 31z"/>
<path style="fill:#616161; stroke:none;" d="M115 32L114 34L115 32z"/>
<path style="fill:#262626; stroke:none;" d="M108 529L72 529C67.5843 529 61.4848 527.924 60 533L69 533L69 534L58 535L58 538L63 538L71 544C77.7268 538.464 98.3488 541 107 541L107 542C94.2355 542.106 73.4595 542.485 62 548L62 549C72.8091 552.195 85.1593 547.654 96 546.13C112.424 543.822 128.483 544 145 544C152.103 544 166.185 546.332 171 540L184 541L187 534L114 529L110.015 436L110.985 351L109.015 293L111.999 221L111.039 135L118 38C174.795 30.8223 231.149 40.1569 288 40L282 121L288 120C288 100.27 287.514 79.5424 290.285 60C290.979 55.1134 296.527 42.8613 292.971 38.6428C290.941 36.2332 283.862 37.9954 281 38C269.968 38.0177 259.056 37 248 37C226.619 37 206.224 32.9687 185 32.0394C162.825 31.0684 140.069 34.2581 118 36L118 32C109.297 36.5666 111.657 53.4554 110.83 62C107.897 92.3133 105 123.592 105 154C105 248.623 102.877 343.301 104.004 438C104.364 468.288 108 498.584 108 529z"/>
<path style="fill:#f7cd4c; stroke:none;" d="M118 32L119 33L118 32z"/>
<path style="fill:#a3a3a3; stroke:none;" d="M148 32L148 33L156 33L148 32z"/>
<path style="fill:#616161; stroke:none;" d="M156 32L156 33L166 33L156 32M189 32L189 33L196 33L189 32z"/>
<path style="fill:#a3a3a3; stroke:none;" d="M196 32L196 33L202 33L196 32M118 33L119 34L118 33z"/>
<path style="fill:#f7cd4c; stroke:none;" d="M134 33L135 34L134 33z"/>
<path style="fill:#a3a3a3; stroke:none;" d="M135 33L135 34L143 34L135 33z"/>
<path style="fill:#616161; stroke:none;" d="M143 33L143 34L152 34L143 33M199 33L199 34L205 34L199 33z"/>
<path style="fill:#a3a3a3; stroke:none;" d="M205 33L205 34L208 34L205 33M113 34L114 35L113 34z"/>
<path style="fill:#616161; stroke:none;" d="M118 34L123 36L123 35L118 34z"/>
<path style="fill:#f7cd4c; stroke:none;" d="M120 34L121 35L120 34z"/>
<path style="fill:#a3a3a3; stroke:none;" d="M121 34L121 35L128 35L121 34z"/>
<path style="fill:#616161; stroke:none;" d="M128 34L128 35L140 35L128 34M163 34L163 35L186 35L163 34M207 34L207 35L212 35L207 34z"/>
<path style="fill:#a3a3a3; stroke:none;" d="M212 34L212 35L215 35L212 34z"/>
<path style="fill:#f7cd4c; stroke:none;" d="M215 34L216 35L215 34z"/>
<path style="fill:#616161; stroke:none;" d="M113 35L114 36L113 35M149 35L149 36L156 36L149 35z"/>
<path style="fill:#a3a3a3; stroke:none;" d="M156 35L156 36L190 36L156 35z"/>
<path style="fill:#616161; stroke:none;" d="M190 35L190 36L195 36L190 35M213 35L213 36L218 36L213 35z"/>
<path style="fill:#a3a3a3; stroke:none;" d="M218 35L218 36L221 36L218 35z"/>
<path style="fill:#f7cd4c; stroke:none;" d="M221 35L222 36L221 35z"/>
<path style="fill:#616161; stroke:none;" d="M136 36L136 37L142 37L136 36z"/>
<path style="fill:#a3a3a3; stroke:none;" d="M142 36L142 37L152 37L142 36z"/>
<path style="fill:#f7cd4c; stroke:none;" d="M152 36L153 37L152 36M193 36L194 37L193 36z"/>
<path style="fill:#a3a3a3; stroke:none;" d="M194 36L194 37L200 37L194 36z"/>
<path style="fill:#616161; stroke:none;" d="M200 36L200 37L203 37L200 36M220 36L220 37L266 37C254.061 31.9902 233.003 36 220 36z"/>
<path style="fill:#a3a3a3; stroke:none;" d="M266 36L266 37L269 37L266 36M290 36L290 37L293 37L290 36M112.333 37.6667L112.667 38.3333L112.333 37.6667z"/>
<path style="fill:#616161; stroke:none;" d="M121 37L121 38L127 38L121 37z"/>
<path style="fill:#a3a3a3; stroke:none;" d="M127 37L127 38L139 38L127 37z"/>
<path style="fill:#f7cd4c; stroke:none;" d="M139 37L140 38L139 37z"/>
<path style="fill:#a3a3a3; stroke:none;" d="M202 37L202 38L206 38L202 37z"/>
<path style="fill:#616161; stroke:none;" d="M206 37L206 38L210 38L206 37M267 37L267 38L274 38L267 37z"/>
<path style="fill:#a3a3a3; stroke:none;" d="M274 37L274 38L283 38L274 37z"/>
<path style="fill:#616161; stroke:none;" d="M283 37L283 38L290 38L283 37M293 37L294 38L293 37M118 38L119 39L118 38z"/>
<path style="fill:#a3a3a3; stroke:none;" d="M119 38L119 39L122 39L119 38z"/>
<path style="fill:#f7cd4c; stroke:none;" d="M209 38L210 39L209 38z"/>
<path style="fill:#a3a3a3; stroke:none;" d="M210 38L210 39L213 39L210 38z"/>
<path style="fill:#616161; stroke:none;" d="M213 38L213 39L216 39L213 38z"/>
<path style="fill:#a3a3a3; stroke:none;" d="M294.333 38.6667L294.667 39.3333L294.333 38.6667z"/>
<path style="fill:#616161; stroke:none;" d="M112.333 39.6667L112.667 40.3333L112.333 39.6667z"/>
<path style="fill:#a3a3a3; stroke:none;" d="M118 39L118 42L119 42L118 39z"/>
<path style="fill:#f7cd4c; stroke:none;" d="M215 39L216 40L215 39z"/>
<path style="fill:#a3a3a3; stroke:none;" d="M216 39L216 40L220 40L216 39z"/>
<path style="fill:#616161; stroke:none;" d="M220 39L220 40L263 40C251.775 35.2895 232.219 39 220 39z"/>
<path style="fill:#f7cd4c; stroke:none;" d="M262 40L263 41L262 40z"/>
<path style="fill:#a3a3a3; stroke:none;" d="M263 40L263 41L266 41L263 40z"/>
<path style="fill:#616161; stroke:none;" d="M266 40L266 41L272 41L266 40M279 40L279 41L288 41L279 40M294 40L294 43L295 43L294 40z"/>
<path style="fill:#f7cd4c; stroke:none;" d="M268.667 41.3333L269.333 41.6667L268.667 41.3333z"/>
<path style="fill:#a3a3a3; stroke:none;" d="M270 41L270 42L284 42L270 41z"/>
<path style="fill:#f7cd4c; stroke:none;" d="M284 41L285 42L284 41z"/>
<path style="fill:#a3a3a3; stroke:none;" d="M287.333 41.6667L287.667 42.3333L287.333 41.6667z"/>
<path style="fill:#f7cd4c; stroke:none;" d="M118 42L119 43L118 42z"/>
<path style="fill:#616161; stroke:none;" d="M287 43L288 44L287 43z"/>
<path style="fill:#a3a3a3; stroke:none;" d="M294 43L295 44L294 43M111 44L111 51L112 51L111 44z"/>
<path style="fill:#f7cd4c; stroke:none;" d="M294 44L295 45L294 44z"/>
<path style="fill:#a3a3a3; stroke:none;" d="M286 45L287 46L286 45z"/>
<path style="fill:#616161; stroke:none;" d="M293 45L294 46L293 45M117 46L117 54L118 54L117 46M286.333 46.6667L286.667 47.3333L286.333 46.6667z"/>
<path style="fill:#a3a3a3; stroke:none;" d="M293.333 46.6667L293.667 47.3333L293.333 46.6667z"/>
<path style="fill:#f7cd4c; stroke:none;" d="M285 48L286 49L285 48z"/>
<path style="fill:#a3a3a3; stroke:none;" d="M285 49L286 50L285 49z"/>
<path style="fill:#616161; stroke:none;" d="M292 49L293 50L292 49M285.333 50.6667L285.667 51.3333L285.333 50.6667z"/>
<path style="fill:#a3a3a3; stroke:none;" d="M292.333 50.6667L292.667 51.3333L292.333 50.6667z"/>
<path style="fill:#616161; stroke:none;" d="M111 51L111 54L112 54L111 51z"/>
<path style="fill:#a3a3a3; stroke:none;" d="M284.333 53.6667L284.667 54.3333L284.333 53.6667z"/>
<path style="fill:#616161; stroke:none;" d="M291.333 53.6667L291.667 54.3333L291.333 53.6667z"/>
<path style="fill:#a3a3a3; stroke:none;" d="M117 54L117 59L118 59L117 54z"/>
<path style="fill:#616161; stroke:none;" d="M284.333 55.6667L284.667 56.3333L284.333 55.6667z"/>
<path style="fill:#a3a3a3; stroke:none;" d="M291.333 55.6667L291.667 56.3333L291.333 55.6667z"/>
<path style="fill:#f7cd4c; stroke:none;" d="M110 58L111 59L110 58z"/>
<path style="fill:#a3a3a3; stroke:none;" d="M283 58L283 61L284 61L283 58z"/>
<path style="fill:#616161; stroke:none;" d="M290 58L290 61L291 61L290 58z"/>
<path style="fill:#a3a3a3; stroke:none;" d="M110.333 59.6667L110.667 60.3333L110.333 59.6667z"/>
<path style="fill:#616161; stroke:none;" d="M110 61L110 65L111 65L110 61M116 61L116 65L117 65L116 61M283 61L283 64L284 64L283 61z"/>
<path style="fill:#a3a3a3; stroke:none;" d="M290 61L290 64L291 64L290 61M116 65L116 70L117 70L116 65M282 66L282 70L283 70L282 66z"/>
<path style="fill:#616161; stroke:none;" d="M289 66L289 71L290 71L289 66z"/>
<path style="fill:#a3a3a3; stroke:none;" d="M109 69L109 74L110 74L109 69z"/>
<path style="fill:#f7cd4c; stroke:none;" d="M116 70L117 71L116 70z"/>
<path style="fill:#616161; stroke:none;" d="M282 70L282 76L283 76L282 70z"/>
<path style="fill:#a3a3a3; stroke:none;" d="M289 71L289 80L290 80L289 71z"/>
<path style="fill:#616161; stroke:none;" d="M109 74L109 78L110 78L109 74M115 75L115 80L116 80L115 75z"/>
<path style="fill:#a3a3a3; stroke:none;" d="M115 80L115 89L116 89L115 80z"/>
<path style="fill:#f7cd4c; stroke:none;" d="M289.333 80.6667L289.667 81.3333L289.333 80.6667M281 83L282 84L281 83z"/>
<path style="fill:#a3a3a3; stroke:none;" d="M281 84C281 92.0326 277.01 117.469 284 122L284 121C276.901 111.629 285.47 94.6515 281 84z"/>
<path style="fill:#f7cd4c; stroke:none;" d="M108 85L109 86L108 85z"/>
<path style="fill:#a3a3a3; stroke:none;" d="M108 86L108 93L109 93L108 86z"/>
<path style="fill:#616161; stroke:none;" d="M108 93L108 99L109 99L108 93M288 96L288 120L289 120L288 96M114 97L114 105L115 105L114 97z"/>
<path style="fill:#a3a3a3; stroke:none;" d="M114 105L114 112L115 112L114 105z"/>
<path style="fill:#f7cd4c; stroke:none;" d="M107 107L108 108L107 107z"/>
<path style="fill:#a3a3a3; stroke:none;" d="M107 108L107 116L108 116L107 108z"/>
<path style="fill:#f7cd4c; stroke:none;" d="M114 112L115 113L114 112z"/>
<path style="fill:#616161; stroke:none;" d="M107 116L107 119L108 119L107 116M113 117L113 120L114 120L113 117z"/>
<path style="fill:#f7cd4c; stroke:none;" d="M263 226C254.791 255.144 259.033 292.964 261.09 323C261.657 331.286 260.057 340.959 261.268 348.941C261.669 351.59 263.943 353.626 266.698 352.377C271.783 350.072 269.002 329.965 269 325C268.99 300.032 268 275.037 268 250C268 243.566 271.464 228.648 266 225C285.26 213.21 301.438 205.157 316 187.424C320.046 182.497 325.579 177.235 327.446 171C332.614 153.74 327.8 131.414 310 123.189C301.58 119.298 293.733 120.937 285 120.922C277.779 120.91 272.249 117.227 265 120.84C243.224 131.692 219.003 152.635 212.761 177C210.629 185.32 208.977 199.931 212.363 208C220.446 227.262 245.211 231.651 263 226z"/>
<path style="fill:#a3a3a3; stroke:none;" d="M113.333 120.667L113.667 121.333L113.333 120.667z"/>
<path style="fill:#616161; stroke:none;" d="M283 120L283 121L286 121L283 120z"/>
<path style="fill:#a3a3a3; stroke:none;" d="M286 120L286 121L289 121L286 120M106.333 121.667L106.667 122.333L106.333 121.667z"/>
<path style="fill:#f7cd4c; stroke:none;" d="M113 122L114 123L113 122z"/>
<path style="fill:#616161; stroke:none;" d="M106.333 123.667L106.667 124.333L106.333 123.667z"/>
<path style="fill:#fdfdfd; stroke:none;" d="M276 127L276 123C267.941 123.419 262.33 128.938 256 133.424C240.348 144.517 221.885 159.539 219.159 180C218.111 187.863 216.237 198.26 218.653 206C222.43 218.105 239.33 225.233 251 224.985C260.497 224.782 268.062 219.401 276 214.873C294.393 204.38 313.786 192.161 323.232 172C330.516 156.455 324.08 132.247 307 126.105C295.953 122.132 286.985 126.528 276 127z"/>
<path style="fill:#616161; stroke:none;" d="M112.333 124.667L112.667 125.333L112.333 124.667z"/>
<path style="fill:#a3a3a3; stroke:none;" d="M286 124L286 126L288 124L286 124z"/>
<path style="fill:#f7cd4c; stroke:none;" d="M287 125L288 126L287 125z"/>
<path style="fill:#a3a3a3; stroke:none;" d="M105.333 126.667L105.667 127.333L105.333 126.667M112.333 126.667L112.667 127.333L112.333 126.667z"/>
<path style="fill:#616161; stroke:none;" d="M105.333 128.667L105.667 129.333L105.333 128.667M111 130L111 154L112 154L111 130z"/>
<path style="fill:#f7cd4c; stroke:none;" d="M104 136L105 137L104 136z"/>
<path style="fill:#a3a3a3; stroke:none;" d="M104 137L104 154L105 154L104 137z"/>
<path style="fill:#f7cd4c; stroke:none;" d="M104 154L105 155L104 154M112 168L113 169L112 168z"/>
<path style="fill:#616161; stroke:none;" d="M105 169L105 177L106 177L105 169z"/>
<path style="fill:#a3a3a3; stroke:none;" d="M112 169L112 177L113 177L112 169M105 177L105 214L106 214C106 203.351 109.111 186.798 105 177z"/>
<path style="fill:#616161; stroke:none;" d="M112 177L112 215L113 215C113 204.089 116.211 187.036 112 177M105 214L105 219L106 219L105 214z"/>
<path style="fill:#a3a3a3; stroke:none;" d="M112 215L112 221L113 221L112 215z"/>
<path style="fill:#f7cd4c; stroke:none;" d="M112 221L113 222L112 221M104 224L105 225L104 224z"/>
<path style="fill:#a3a3a3; stroke:none;" d="M104 225L104 230L105 230L104 225z"/>
<path style="fill:#616161; stroke:none;" d="M111 228L111 232L112 232L111 228M104 230L104 233L105 233L104 230z"/>
<path style="fill:#a3a3a3; stroke:none;" d="M111 232L111 237L112 237L111 232z"/>
<path style="fill:#f7cd4c; stroke:none;" d="M111 237L112 238L111 237M103 241L103 246L104 246L103 241M103 247L103 250L104 250L103 247z"/>
<path style="fill:#a3a3a3; stroke:none;" d="M103 250L103 257L104 257L103 250z"/>
<path style="fill:#616161; stroke:none;" d="M110 256L110 261L111 261L110 256M103 257L103 263L104 263L103 257z"/>
<path style="fill:#a3a3a3; stroke:none;" d="M110 261L110 268L111 268L110 261z"/>
<path style="fill:#f7cd4c; stroke:none;" d="M110.333 268.667L110.667 269.333L110.333 268.667M102 271L103 272L102 271z"/>
<path style="fill:#a3a3a3; stroke:none;" d="M102 272L102 309L103 309C103 298.351 106.111 281.798 102 272z"/>
<path style="fill:#616161; stroke:none;" d="M109 287L109 310L110 310L109 287z"/>
<path style="fill:#f7cd4c; stroke:none;" d="M102 309L103 310L102 309z"/>
<path style="fill:#616161; stroke:none;" d="M103 318L103 329L104 329L103 318z"/>
<path style="fill:#f7cd4c; stroke:none;" d="M110 318L111 319L110 318z"/>
<path style="fill:#a3a3a3; stroke:none;" d="M110 319L110 330L111 330L110 319M103 329L103 346L104 346L103 329z"/>
<path style="fill:#616161; stroke:none;" d="M110 330L110 346L111 346L110 330z"/>
<path style="fill:#f7cd4c; stroke:none;" d="M111 357L112 358L111 357z"/>
<path style="fill:#616161; stroke:none;" d="M104 358L104 416L105 416L105 377L104 358z"/>
<path style="fill:#a3a3a3; stroke:none;" d="M111 358L111 406L112 406C112 392.474 116.209 370.414 111 358z"/>
<path style="fill:#f7cd4c; stroke:none;" d="M111 406L111 413L112 413L111 406z"/>
<path style="fill:#616161; stroke:none;" d="M110.333 418.667L110.667 419.333L110.333 418.667z"/>
<path style="fill:#a3a3a3; stroke:none;" d="M103 419L103 423L104 423L103 419M110 420L110 425L111 425L110 420z"/>
<path style="fill:#616161; stroke:none;" d="M103 423L103 436L104 436L103 423z"/>
<path style="fill:#f7cd4c; stroke:none;" d="M110 434L111 435L110 434z"/>
<path style="fill:#a3a3a3; stroke:none;" d="M110.333 435.667L110.667 436.333L110.333 435.667M103 436L103 439L104 439L103 436z"/>
<path style="fill:#616161; stroke:none;" d="M110 437L110 442L111 442L110 437z"/>
<path style="fill:#f7cd4c; stroke:none;" d="M103 439L104 440L103 439z"/>
<path style="fill:#616161; stroke:none;" d="M104 444L104 447L105 447L104 444z"/>
<path style="fill:#a3a3a3; stroke:none;" d="M111 445L111 450L112 450L111 445M104 447L104 451L105 451L104 447z"/>
<path style="fill:#616161; stroke:none;" d="M111 450L111 453L112 453L111 450z"/>
<path style="fill:#f7cd4c; stroke:none;" d="M104 451L105 452L104 451z"/>
<path style="fill:#616161; stroke:none;" d="M105 456L105 459L106 459L105 456z"/>
<path style="fill:#a3a3a3; stroke:none;" d="M112 458L112 461L113 461L112 458M105.333 459.667L105.667 460.333L105.333 459.667z"/>
<path style="fill:#f7cd4c; stroke:none;" d="M105 461L106 462L105 461z"/>
<path style="fill:#616161; stroke:none;" d="M112 461L112 464L113 464L112 461M106 466L106 476L107 476L106 466z"/>
<path style="fill:#a3a3a3; stroke:none;" d="M113 475L113 492L114 492L113 475M106 476L106 493L107 493L106 476z"/>
<path style="fill:#616161; stroke:none;" d="M113 492L113 506L114 506L113 492M107 506L107 529L108 529L107 506z"/>
<path style="fill:#f7cd4c; stroke:none;" d="M66 528L67 529L66 528z"/>
<path style="fill:#a3a3a3; stroke:none;" d="M67 528L67 529L77 529L67 528z"/>
<path style="fill:#616161; stroke:none;" d="M77 528L77 529L104 529L77 528z"/>
<path style="fill:#a3a3a3; stroke:none;" d="M104 528L104 529L107 529L104 528M114 528L114 529L127 529L114 528z"/>
<path style="fill:#f7cd4c; stroke:none;" d="M127 528L128 529L127 528z"/>
<path style="fill:#a3a3a3; stroke:none;" d="M60 529L61 530L60 529z"/>
<path style="fill:#616161; stroke:none;" d="M61.6667 529.333L62.3333 529.667L61.6667 529.333M134 529L134 530L138 530L134 529z"/>
<path style="fill:#a3a3a3; stroke:none;" d="M138 529L138 530L144 530L138 529M59 530L60 531L59 530z"/>
<path style="fill:#616161; stroke:none;" d="M147 530L147 531L151 531L147 530z"/>
<path style="fill:#a3a3a3; stroke:none;" d="M151 530L151 531L155 531L151 530z"/>
<path style="fill:#616161; stroke:none;" d="M59 531L60 532L59 531M157 531L157 532L161 532L157 531z"/>
<path style="fill:#a3a3a3; stroke:none;" d="M161 531L161 532L168 532L161 531z"/>
<path style="fill:#616161; stroke:none;" d="M168 531L168 532L171 532L168 531z"/>
<path style="fill:#a3a3a3; stroke:none;" d="M171 531L172 532L171 531M174 531L174 532L178 532L174 531z"/>
<path style="fill:#616161; stroke:none;" d="M178 531L179 532L178 531z"/>
<path style="fill:#a3a3a3; stroke:none;" d="M179 531L180 532L179 531z"/>
<path style="fill:#f7cd4c; stroke:none;" d="M59 532L60 533L59 532z"/>
<path style="fill:#a3a3a3; stroke:none;" d="M59 534L59 535L64 535L59 534z"/>
<path style="fill:#616161; stroke:none;" d="M62 533L62 534L69 534L62 533z"/>
<path style="fill:#a3a3a3; stroke:none;" d="M180 533L181 534L180 533z"/>
<path style="fill:#616161; stroke:none;" d="M181 533L181 534L186 534L181 533z"/>
<path style="fill:#a3a3a3; stroke:none;" d="M186 533L187 534L186 533z"/>
<path style="fill:#f7cd4c; stroke:none;" d="M58 534L59 535L58 534z"/>
<path style="fill:#a3a3a3; stroke:none;" d="M66 534L67 535L66 534z"/>
<path style="fill:#616161; stroke:none;" d="M184.667 536.333L185.333 536.667L184.667 536.333z"/>
<path style="fill:#a3a3a3; stroke:none;" d="M186 536L187 537L186 536z"/>
<path style="fill:#f7cd4c; stroke:none;" d="M184 537L185 538L184 537z"/>
<path style="fill:#a3a3a3; stroke:none;" d="M59 538L59 539L63 539L59 538M184 538L184 541L185 541L184 538z"/>
<path style="fill:#616161; stroke:none;" d="M62 539L63 540L62 539z"/>
<path style="fill:#a3a3a3; stroke:none;" d="M62 540L63 541L62 540z"/>
<path style="fill:#616161; stroke:none;" d="M143 540L144 541L143 540M171.667 540.333L172.333 540.667L171.667 540.333M63 541L64 542L63 541M90 541L90 542L95 542L90 541z"/>
<path style="fill:#a3a3a3; stroke:none;" d="M93 542L93 543L99 542L93 542z"/>
<path style="fill:#f7cd4c; stroke:none;" d="M99 541L100 542L99 541z"/>
<path style="fill:#fdfdfd; stroke:none;" d="M100.667 541.333L101.333 541.667L100.667 541.333z"/>
<path style="fill:#a3a3a3; stroke:none;" d="M102 541L102 542L105 542L102 541z"/>
<path style="fill:#616161; stroke:none;" d="M105.667 541.333L106.333 541.667L105.667 541.333z"/>
<path style="fill:#a3a3a3; stroke:none;" d="M176 541L176 542L181 542L176 541z"/>
<path style="fill:#616161; stroke:none;" d="M181.667 541.333L182.333 541.667L181.667 541.333z"/>
<path style="fill:#a3a3a3; stroke:none;" d="M183 541L184 542L183 541z"/>
<path style="fill:#f7cd4c; stroke:none;" d="M64 542L65 543L64 542z"/>
<path style="fill:#a3a3a3; stroke:none;" d="M65 542L66 543L65 542z"/>
<path style="fill:#616161; stroke:none;" d="M66 542L66 543L69 544L66 542M71 542L72 543L71 542M73 542L73 543L81 543L73 542z"/>
<path style="fill:#a3a3a3; stroke:none;" d="M81 542L81 543L89 544L81 542z"/>
<path style="fill:#f7cd4c; stroke:none;" d="M87 542L88 543L87 542z"/>
<path style="fill:#fdfdfd; stroke:none;" d="M88 542L88 543L92 543L88 542z"/>
<path style="fill:#f7cd4c; stroke:none;" d="M92 542L93 543L92 542z"/>
<path style="fill:#616161; stroke:none;" d="M96 542L96 543L100 543L96 542M168 542L169 543L168 542z"/>
<path style="fill:#a3a3a3; stroke:none;" d="M169.667 542.333L170.333 542.667L169.667 542.333z"/>
<path style="fill:#f7cd4c; stroke:none;" d="M71 543L72 544L71 543z"/>
<path style="fill:#fdfdfd; stroke:none;" d="M71 544L71 545L86 544L71 544z"/>
<path style="fill:#616161; stroke:none;" d="M89.6667 543.333L90.3333 543.667L89.6667 543.333M123 543L123 544L128 544L123 543M163.667 543.333L164.333 543.667L163.667 543.333z"/>
<path style="fill:#a3a3a3; stroke:none;" d="M165.667 543.333L166.333 543.667L165.667 543.333z"/>
<path style="fill:#f7cd4c; stroke:none;" d="M68 544L69 545L68 544z"/>
<path style="fill:#a3a3a3; stroke:none;" d="M66 545L66 546L71 545L66 545z"/>
<path style="fill:#f7cd4c; stroke:none;" d="M77 544L78 545L77 544z"/>
<path style="fill:#a3a3a3; stroke:none;" d="M78 544L78 545L82 545L78 544z"/>
<path style="fill:#616161; stroke:none;" d="M82 544L82 545L85 545L82 544M112 544L112 545L115 545L112 544z"/>
<path style="fill:#a3a3a3; stroke:none;" d="M115 544L115 545L119 545L115 544z"/>
<path style="fill:#f7cd4c; stroke:none;" d="M119 544L120 545L119 544M130 544L131 545L130 544z"/>
<path style="fill:#a3a3a3; stroke:none;" d="M131 544L131 545L138 545L131 544z"/>
<path style="fill:#616161; stroke:none;" d="M138 544L138 545L157 545L138 544z"/>
<path style="fill:#a3a3a3; stroke:none;" d="M157 544L157 545L161 545L157 544z"/>
<path style="fill:#616161; stroke:none;" d="M69 545L69 546L74 546L69 545M100 545L100 546L104 546L100 545z"/>
<path style="fill:#a3a3a3; stroke:none;" d="M104 545L104 546L108 546L104 545M63 546L64 547L63 546z"/>
<path style="fill:#616161; stroke:none;" d="M64 546L65 547L64 546M93.6667 546.333L94.3333 546.667L93.6667 546.333z"/>
<path style="fill:#a3a3a3; stroke:none;" d="M95 546L95 547L98 547L95 546M62 547L63 548L62 547z"/>
<path style="fill:#616161; stroke:none;" d="M87 547L88 548L87 547z"/>
<path style="fill:#a3a3a3; stroke:none;" d="M88.6667 547.333L89.3333 547.667L88.6667 547.333z"/>
<path style="fill:#f7cd4c; stroke:none;" d="M90 547L91 548L90 547z"/>
<path style="fill:#616161; stroke:none;" d="M81.6667 548.333L82.3333 548.667L81.6667 548.333z"/>
<path style="fill:#a3a3a3; stroke:none;" d="M83.6667 548.333L84.3333 548.667L83.6667 548.333z"/>
<path style="fill:#f7cd4c; stroke:none;" d="M85 548L86 549L85 548z"/>
<path style="fill:#616161; stroke:none;" d="M62 549L63 550L62 549M76.6667 549.333L77.3333 549.667L76.6667 549.333z"/>
<path style="fill:#a3a3a3; stroke:none;" d="M78.6667 549.333L79.3333 549.667L78.6667 549.333M63 550L64 551L63 550z"/>
<path style="fill:#616161; stroke:none;" d="M64 550L64 551L70 551L64 550z"/>
<path style="fill:#a3a3a3; stroke:none;" d="M70 550L70 551L74 551L70 550z"/>
</svg>
