<?xml version="1.0" standalone="yes"?>
<svg xmlns="http://www.w3.org/2000/svg" width="590" height="590">
<path style="fill:#fdfdfd; stroke:none;" d="M0 0L0 590L590 590L590 0L0 0z"/>
<path style="fill:#b1b1b1; stroke:none;" d="M114 46L114 47L119 47L114 46M162 45L162 46L192 46L162 45z"/>
<path style="fill:#707070; stroke:none;" d="M115 46L116 47L115 46z"/>
<path style="fill:#4d4d4d; stroke:none;" d="M116 46L117 47L116 46z"/>
<path style="fill:#262626; stroke:none;" d="M117 46C109.065 53.5729 110.174 75.4237 109.997 86C109.43 119.909 103.584 153.024 105.91 187C109.039 232.684 102.78 279.177 103.001 325C103.105 346.632 105 368.341 105 390C105 411.289 103.11 432.779 104.039 454C105.355 484.039 108 513.847 108 544L73 544C68.4538 544 62.8805 542.923 60 547L69 547L58 550L58 552L63 552L71 558C77.7268 552.464 98.3488 555 107 555L107 556C97.5181 558.264 86.7388 559.523 77 560C72.3908 560.226 65.6746 559.874 63 564L103 559.17L159 557.961L184 555L187 549L180 549L163 546.83L114 544L109.015 306L111.999 235L111.039 149L118 52C175.11 44.7825 231.826 54.038 289 54C280.629 73.4572 282 97.2671 282 118C282 124.882 278.811 138.284 288 139C288.057 118.41 287.61 96.4477 290.156 76C290.789 70.9168 296.613 57.0046 292.971 52.7816C290.612 50.0453 283.096 52.2291 280 52.561C269.82 53.6522 258.393 51 248 51C226.782 51 206.013 46.179 185 46.179C162.643 46.179 140.311 49.0422 118 50L117 46z"/>
<path style="fill:#b1b1b1; stroke:none;" d="M148 46L148 47L156 47L148 46z"/>
<path style="fill:#707070; stroke:none;" d="M156 46L156 47L163 47L156 46z"/>
<path style="fill:#4d4d4d; stroke:none;" d="M163 46L163 47L182 47L163 46M188 46L188 47L191 47L188 46z"/>
<path style="fill:#707070; stroke:none;" d="M191 46L191 47L196 47L191 46z"/>
<path style="fill:#b1b1b1; stroke:none;" d="M196 46L196 47L202 47L196 46z"/>
<path style="fill:#4d4d4d; stroke:none;" d="M114 47L115 48L114 47z"/>
<path style="fill:#707070; stroke:none;" d="M118 47L121 50L121 49L118 47z"/>
<path style="fill:#b1b1b1; stroke:none;" d="M134 47L134 48L143 48L134 47z"/>
<path style="fill:#707070; stroke:none;" d="M143 47L143 48L149 48L143 47z"/>
<path style="fill:#4d4d4d; stroke:none;" d="M149 47L149 48L154 48L149 47M197 47L197 48L201 48L197 47z"/>
<path style="fill:#707070; stroke:none;" d="M201 47L201 48L205 48L201 47z"/>
<path style="fill:#b1b1b1; stroke:none;" d="M205 47L205 48L208 48L205 47M113 48L114 49L113 48M120 48L120 49L124 49L120 48z"/>
<path style="fill:#707070; stroke:none;" d="M124 48L125 49L124 48z"/>
<path style="fill:#b1b1b1; stroke:none;" d="M125 48L125 49L128 49L125 48z"/>
<path style="fill:#707070; stroke:none;" d="M128 48L128 49L135 49L128 48z"/>
<path style="fill:#4d4d4d; stroke:none;" d="M135 48L135 49L141 49L135 48M162 48L162 49L186 49L162 48M206.667 48.3333L207.333 48.6667L206.667 48.3333z"/>
<path style="fill:#707070; stroke:none;" d="M208 48L208 49L212 49L208 48z"/>
<path style="fill:#b1b1b1; stroke:none;" d="M212 48L212 49L216 49L212 48z"/>
<path style="fill:#707070; stroke:none;" d="M113 49L114 50L113 49z"/>
<path style="fill:#4d4d4d; stroke:none;" d="M118 49L119 50L118 49M121 49L121 50L124 50L121 49M149 49L149 50L153 50L149 49z"/>
<path style="fill:#707070; stroke:none;" d="M153 49L153 50L158 50L153 49z"/>
<path style="fill:#b1b1b1; stroke:none;" d="M158 49L158 50L189 50L158 49z"/>
<path style="fill:#707070; stroke:none;" d="M189 49L189 50L193 50L189 49z"/>
<path style="fill:#4d4d4d; stroke:none;" d="M193 49L193 50L196 50L193 49M213.667 49.3333L214.333 49.6667L213.667 49.3333z"/>
<path style="fill:#707070; stroke:none;" d="M215 49L215 50L219 50L215 49z"/>
<path style="fill:#b1b1b1; stroke:none;" d="M219 49L219 50L222 50L219 49z"/>
<path style="fill:#4d4d4d; stroke:none;" d="M135 50L135 51L139 51L135 50z"/>
<path style="fill:#707070; stroke:none;" d="M139 50L139 51L144 51L139 50z"/>
<path style="fill:#b1b1b1; stroke:none;" d="M144 50L144 51L155 51L144 50M191 50L191 51L198 51L191 50z"/>
<path style="fill:#707070; stroke:none;" d="M198 50L198 51L202 51L198 50z"/>
<path style="fill:#4d4d4d; stroke:none;" d="M202.667 50.3333L203.333 50.6667L202.667 50.3333M219.667 50.3333L220.333 50.6667L219.667 50.3333z"/>
<path style="fill:#707070; stroke:none;" d="M221 50L221 51L266 51C254.299 46.0899 233.742 50 221 50z"/>
<path style="fill:#b1b1b1; stroke:none;" d="M266 50L266 51L269 51L266 50M290 50L291 51L290 50z"/>
<path style="fill:#707070; stroke:none;" d="M291 50L292 51L291 50z"/>
<path style="fill:#b1b1b1; stroke:none;" d="M292.667 50.3333L293.333 50.6667L292.667 50.3333M112.333 51.6667L112.667 52.3333L112.333 51.6667z"/>
<path style="fill:#4d4d4d; stroke:none;" d="M121 51L121 52L125 52L121 51z"/>
<path style="fill:#707070; stroke:none;" d="M125 51L125 52L132 52L125 51z"/>
<path style="fill:#b1b1b1; stroke:none;" d="M132 51L132 52L141 52L132 51M201 51L201 52L205 52L201 51z"/>
<path style="fill:#707070; stroke:none;" d="M205 51L205 52L209 52L205 51z"/>
<path style="fill:#4d4d4d; stroke:none;" d="M209 51L210 52L209 51M266.667 51.3333L267.333 51.6667L266.667 51.3333z"/>
<path style="fill:#707070; stroke:none;" d="M268 51L268 52L274 52L268 51z"/>
<path style="fill:#b1b1b1; stroke:none;" d="M274 51L274 52L282 52L274 51z"/>
<path style="fill:#707070; stroke:none;" d="M282 51L282 52L290 52L282 51z"/>
<path style="fill:#4d4d4d; stroke:none;" d="M292 51L293 52L292 51z"/>
<path style="fill:#707070; stroke:none;" d="M293 51L294 52L293 51z"/>
<path style="fill:#4d4d4d; stroke:none;" d="M118 52L119 53L118 52z"/>
<path style="fill:#b1b1b1; stroke:none;" d="M119 52L119 53L127 53L119 52M207 52L207 53L211 53L207 52z"/>
<path style="fill:#707070; stroke:none;" d="M211 52L211 53L215 53L211 52z"/>
<path style="fill:#4d4d4d; stroke:none;" d="M215 52L216 53L215 52M274 52L274 53L281 53L274 52z"/>
<path style="fill:#b1b1b1; stroke:none;" d="M294 52L295 53L294 52z"/>
<path style="fill:#707070; stroke:none;" d="M112 53L113 54L112 53z"/>
<path style="fill:#b1b1b1; stroke:none;" d="M118 53L118 57L119 57L118 53M214 53L214 54L218 54L214 53z"/>
<path style="fill:#707070; stroke:none;" d="M218 53L218 54L262 54C250.537 49.1897 230.48 53 218 53z"/>
<path style="fill:#4d4d4d; stroke:none;" d="M262 53L263 54L262 53z"/>
<path style="fill:#707070; stroke:none;" d="M294.333 53.6667L294.667 54.3333L294.333 53.6667z"/>
<path style="fill:#4d4d4d; stroke:none;" d="M112.333 54.6667L112.667 55.3333L112.333 54.6667z"/>
<path style="fill:#b1b1b1; stroke:none;" d="M220 54L220 55L264 55C252.537 50.1897 232.48 54 220 54z"/>
<path style="fill:#707070; stroke:none;" d="M264 54L264 55L268 55L264 54z"/>
<path style="fill:#4d4d4d; stroke:none;" d="M268 54L268 55L272 55L268 54M279 54L279 55L286 55L279 54z"/>
<path style="fill:#707070; stroke:none;" d="M286.667 54.3333L287.333 54.6667L286.667 54.3333z"/>
<path style="fill:#4d4d4d; stroke:none;" d="M288 54L289 55L288 54z"/>
<path style="fill:#b1b1b1; stroke:none;" d="M266 55L266 56L288 57C284.196 52.6464 271.561 55 266 55z"/>
<path style="fill:#4d4d4d; stroke:none;" d="M294.333 55.6667L294.667 56.3333L294.333 55.6667z"/>
<path style="fill:#707070; stroke:none;" d="M287 57L288 58L287 57M294 57L295 58L294 57z"/>
<path style="fill:#b1b1b1; stroke:none;" d="M111 58L111 64L112 64L111 58M294 58L295 59L294 58M286 59L287 60L286 59z"/>
<path style="fill:#4d4d4d; stroke:none;" d="M293 59L294 60L293 59z"/>
<path style="fill:#707070; stroke:none;" d="M286 60L287 61L286 60M293 60L294 61L293 60z"/>
<path style="fill:#4d4d4d; stroke:none;" d="M117 61L117 66L118 66L117 61M286 61L287 62L286 61z"/>
<path style="fill:#b1b1b1; stroke:none;" d="M293 61L294 62L293 61M285.333 63.6667L285.667 64.3333L285.333 63.6667z"/>
<path style="fill:#4d4d4d; stroke:none;" d="M292 63L293 64L292 63z"/>
<path style="fill:#707070; stroke:none;" d="M111 64L111 67L112 67L111 64M292 64L293 65L292 64M285 65L286 66L285 65z"/>
<path style="fill:#b1b1b1; stroke:none;" d="M292.333 65.6667L292.667 66.3333L292.333 65.6667z"/>
<path style="fill:#707070; stroke:none;" d="M117 66L117 69L118 69L117 66z"/>
<path style="fill:#4d4d4d; stroke:none;" d="M111.333 67.6667L111.667 68.3333L111.333 67.6667z"/>
<path style="fill:#b1b1b1; stroke:none;" d="M284.333 67.6667L284.667 68.3333L284.333 67.6667z"/>
<path style="fill:#707070; stroke:none;" d="M291.333 68.6667L291.667 69.3333L291.333 68.6667z"/>
<path style="fill:#b1b1b1; stroke:none;" d="M117 69L117 73L118 73L117 69z"/>
<path style="fill:#707070; stroke:none;" d="M284 69L285 70L284 69z"/>
<path style="fill:#4d4d4d; stroke:none;" d="M284 70L285 71L284 70z"/>
<path style="fill:#b1b1b1; stroke:none;" d="M291 70L292 71L291 70M110 72L110 75L111 75L110 72M283.333 73.6667L283.667 74.3333L283.333 73.6667z"/>
<path style="fill:#4d4d4d; stroke:none;" d="M290 73L291 74L290 73z"/>
<path style="fill:#707070; stroke:none;" d="M290.333 74.6667L290.667 75.3333L290.333 74.6667M110 75L110 78L111 78L110 75M283.333 75.6667L283.667 76.3333L283.333 75.6667z"/>
<path style="fill:#4d4d4d; stroke:none;" d="M116 76L116 79L117 79L116 76z"/>
<path style="fill:#b1b1b1; stroke:none;" d="M290 76L290 79L291 79L290 76z"/>
<path style="fill:#4d4d4d; stroke:none;" d="M283 77L284 78L283 77M110 78L111 79L110 78z"/>
<path style="fill:#707070; stroke:none;" d="M116 79L117 80L116 79z"/>
<path style="fill:#b1b1b1; stroke:none;" d="M116 80L116 85L117 85L116 80M282 81L282 85L283 85L282 81z"/>
<path style="fill:#4d4d4d; stroke:none;" d="M289 81L289 84L290 84L289 81z"/>
<path style="fill:#b1b1b1; stroke:none;" d="M109 82L109 87L110 87L109 82z"/>
<path style="fill:#707070; stroke:none;" d="M289 84L289 87L290 87L289 84M282 85L282 88L283 88L282 85M109 87L109 90L110 90L109 87z"/>
<path style="fill:#b1b1b1; stroke:none;" d="M289 87L289 98L290 98L289 87z"/>
<path style="fill:#4d4d4d; stroke:none;" d="M282 88L282 92L283 92L282 88M115 89L115 92L116 92L115 89M109 90L109 93L110 93L109 90z"/>
<path style="fill:#707070; stroke:none;" d="M115 92L115 97L116 97L115 92z"/>
<path style="fill:#b1b1b1; stroke:none;" d="M115 97L115 104L116 104L115 97M108 99L108 105L109 105L108 99M281.333 101.667L281.667 102.333L281.333 101.667z"/>
<path style="fill:#707070; stroke:none;" d="M108 105L108 111L109 111L108 105z"/>
<path style="fill:#b1b1b1; stroke:none;" d="M281 105L281 137L282 137L281 105z"/>
<path style="fill:#4d4d4d; stroke:none;" d="M108 111L108 116L109 116L108 111M114 111L114 115L115 115L114 111z"/>
<path style="fill:#707070; stroke:none;" d="M114 115L114 121L115 121L114 115z"/>
<path style="fill:#b1b1b1; stroke:none;" d="M107 121L107 129L108 129L107 121M114 121L114 128L115 128L114 121z"/>
<path style="fill:#707070; stroke:none;" d="M107.333 129.667L107.667 130.333L107.333 129.667z"/>
<path style="fill:#4d4d4d; stroke:none;" d="M288 130L288 138L289 138L288 130M107.333 131.667L107.667 132.333L107.333 131.667M113 131L114 132L113 131z"/>
<path style="fill:#707070; stroke:none;" d="M113.333 132.667L113.667 133.333L113.333 132.667z"/>
<path style="fill:#b1b1b1; stroke:none;" d="M113 134L113 137L114 137L113 134M106.333 135.667L106.667 136.333L106.333 135.667z"/>
<path style="fill:#707070; stroke:none;" d="M106 137L107 138L106 137z"/>
<path style="fill:#4d4d4d; stroke:none;" d="M106 138L107 139L106 138M112 138L113 139L112 138z"/>
<path style="fill:#707070; stroke:none;" d="M282 138L283 139L282 138z"/>
<path style="fill:#b1b1b1; stroke:none;" d="M288 138L289 139L288 138z"/>
<path style="fill:#707070; stroke:none;" d="M112 139L113 140L112 139z"/>
<path style="fill:#b1b1b1; stroke:none;" d="M282.667 139.333L283.333 139.667L282.667 139.333z"/>
<path style="fill:#707070; stroke:none;" d="M284 139L284 140L287 140L284 139z"/>
<path style="fill:#b1b1b1; stroke:none;" d="M287 139L288 140L287 139M105.333 140.667L105.667 141.333L105.333 140.667M112.333 140.667L112.667 141.333L112.333 140.667z"/>
<path style="fill:#707070; stroke:none;" d="M105 142L106 143L105 142z"/>
<path style="fill:#4d4d4d; stroke:none;" d="M105.333 143.667L105.667 144.333L105.333 143.667M111 144L111 149L112 149L111 144z"/>
<path style="fill:#707070; stroke:none;" d="M111 149L111 167L112 167L111 149z"/>
<path style="fill:#b1b1b1; stroke:none;" d="M104 150L104 169L105 169L104 150z"/>
<path style="fill:#4d4d4d; stroke:none;" d="M111.333 167.667L111.667 168.333L111.333 167.667z"/>
<path style="fill:#b1b1b1; stroke:none;" d="M112 182L112 190L113 190L112 182z"/>
<path style="fill:#4d4d4d; stroke:none;" d="M105 183L105 188L106 188L105 183z"/>
<path style="fill:#707070; stroke:none;" d="M105 188L105 192L106 192L105 188M112 190L112 212L113 212L112 190z"/>
<path style="fill:#b1b1b1; stroke:none;" d="M105 192L105 220L106 220L105 192z"/>
<path style="fill:#4d4d4d; stroke:none;" d="M112 212L112 224L113 224L112 212z"/>
<path style="fill:#707070; stroke:none;" d="M105.333 220.667L105.667 221.333L105.333 220.667z"/>
<path style="fill:#b1b1b1; stroke:none;" d="M105 222L105 228L106 228L105 222z"/>
<path style="fill:#707070; stroke:none;" d="M112 224L112 231L113 231L112 224M105 228L105 231L106 231L105 228z"/>
<path style="fill:#4d4d4d; stroke:none;" d="M105 231L105 234L106 234L105 231z"/>
<path style="fill:#b1b1b1; stroke:none;" d="M112 231L112 237L113 237L112 231M104 238L104 244L105 244L104 238z"/>
<path style="fill:#4d4d4d; stroke:none;" d="M111 242L111 245L112 245L111 242z"/>
<path style="fill:#707070; stroke:none;" d="M104.333 244.667L104.667 245.333L104.333 244.667M111.333 245.667L111.667 246.333L111.333 245.667z"/>
<path style="fill:#4d4d4d; stroke:none;" d="M104.333 246.667L104.667 247.333L104.333 246.667z"/>
<path style="fill:#b1b1b1; stroke:none;" d="M111 247L111 253L112 253L111 247M103 254L103 270L104 270L103 254z"/>
<path style="fill:#4d4d4d; stroke:none;" d="M110 269L110 272L111 272L110 269z"/>
<path style="fill:#707070; stroke:none;" d="M103 270L103 275L104 275L103 270M110 272L110 277L111 277L110 272z"/>
<path style="fill:#4d4d4d; stroke:none;" d="M103 275L103 278L104 278L103 275z"/>
<path style="fill:#b1b1b1; stroke:none;" d="M110 277L110 285L111 285L110 277M102 285L102 324L103 324C103 312.828 106.311 295.274 102 285z"/>
<path style="fill:#4d4d4d; stroke:none;" d="M109 295L109 298L110 298L109 295M109 300L109 319L110 319L109 300z"/>
<path style="fill:#707070; stroke:none;" d="M109 319L110 320L109 319z"/>
<path style="fill:#4d4d4d; stroke:none;" d="M109 320L110 321L109 320z"/>
<path style="fill:#707070; stroke:none;" d="M109.333 321.667L109.667 322.333L109.333 321.667z"/>
<path style="fill:#4d4d4d; stroke:none;" d="M109.333 323.667L109.667 324.333L109.333 323.667M103.333 332.667L103.667 333.333L103.333 332.667z"/>
<path style="fill:#b1b1b1; stroke:none;" d="M110 332L110 343L111 343L110 332z"/>
<path style="fill:#707070; stroke:none;" d="M103 334L103 343L104 343L103 334z"/>
<path style="fill:#b1b1b1; stroke:none;" d="M103 343L103 361L104 361L103 343z"/>
<path style="fill:#707070; stroke:none;" d="M110 343L110 359L111 359L110 343z"/>
<path style="fill:#4d4d4d; stroke:none;" d="M110.333 359.667L110.667 360.333L110.333 359.667M104 371L104 418L105 418C105 404.735 109.11 383.177 104 371z"/>
<path style="fill:#b1b1b1; stroke:none;" d="M111 371L111 428L112 428L112 389L111 371z"/>
<path style="fill:#707070; stroke:none;" d="M104 418L104 428L105 428L104 418z"/>
<path style="fill:#4d4d4d; stroke:none;" d="M104 428L104 431L105 431L104 428M110 432L111 433L110 432z"/>
<path style="fill:#b1b1b1; stroke:none;" d="M103 433L103 437L104 437L103 433z"/>
<path style="fill:#707070; stroke:none;" d="M110 433L110 436L111 436L110 433z"/>
<path style="fill:#b1b1b1; stroke:none;" d="M110 436L110 440L111 440L110 436z"/>
<path style="fill:#707070; stroke:none;" d="M103.333 437.667L103.667 438.333L103.333 437.667z"/>
<path style="fill:#4d4d4d; stroke:none;" d="M103 439L103 449L104 449L103 439z"/>
<path style="fill:#b1b1b1; stroke:none;" d="M110 448L110 451L111 451L110 448z"/>
<path style="fill:#707070; stroke:none;" d="M103.333 449.667L103.667 450.333L103.333 449.667z"/>
<path style="fill:#b1b1b1; stroke:none;" d="M103 451L103 455L104 455L103 451z"/>
<path style="fill:#707070; stroke:none;" d="M110 451L110 454L111 454L110 451z"/>
<path style="fill:#4d4d4d; stroke:none;" d="M110 454L110 457L111 457L110 454M104 458L105 459L104 458z"/>
<path style="fill:#707070; stroke:none;" d="M104 459L104 463L105 463L104 459z"/>
<path style="fill:#b1b1b1; stroke:none;" d="M111 459L111 464L112 464L111 459M104 463L104 466L105 466L104 463z"/>
<path style="fill:#707070; stroke:none;" d="M111.333 464.667L111.667 465.333L111.333 464.667z"/>
<path style="fill:#4d4d4d; stroke:none;" d="M111.333 466.667L111.667 467.333L111.333 466.667M105.333 470.667L105.667 471.333L105.333 470.667z"/>
<path style="fill:#707070; stroke:none;" d="M105.333 472.667L105.667 473.333L105.333 472.667z"/>
<path style="fill:#b1b1b1; stroke:none;" d="M112 472L112 475L113 475L112 472M105.333 474.667L105.667 475.333L105.333 474.667z"/>
<path style="fill:#707070; stroke:none;" d="M112 475L113 476L112 475z"/>
<path style="fill:#4d4d4d; stroke:none;" d="M112 476L112 479L113 479L112 476M106.333 480.667L106.667 481.333L106.333 480.667z"/>
<path style="fill:#707070; stroke:none;" d="M106 482L106 491L107 491L106 482z"/>
<path style="fill:#b1b1b1; stroke:none;" d="M113 483L113 486L114 486L113 483M113 488L113 506L114 506L113 488M106 491L106 507L107 507L106 491z"/>
<path style="fill:#707070; stroke:none;" d="M113 506L113 509L114 509L113 506z"/>
<path style="fill:#4d4d4d; stroke:none;" d="M113 509L113 517L114 517L113 509z"/>
<path style="fill:#707070; stroke:none;" d="M113 517L114 518L113 517z"/>
<path style="fill:#4d4d4d; stroke:none;" d="M113.333 518.667L113.667 519.333L113.333 518.667M107 520L107 541L108 541L107 520z"/>
<path style="fill:#707070; stroke:none;" d="M107.333 541.667L107.667 542.333L107.333 541.667z"/>
<path style="fill:#b1b1b1; stroke:none;" d="M68 542L68 543L107 543C96.726 538.689 79.1723 542 68 542M114 542L114 543L126 543L114 542M59 545L62 544L59 545z"/>
<path style="fill:#707070; stroke:none;" d="M62 543L62 544L68 544L62 543z"/>
<path style="fill:#4d4d4d; stroke:none;" d="M68 543L68 544L108 544C97.4881 539.589 79.434 543 68 543M114 543L114 544L125 544L114 543z"/>
<path style="fill:#707070; stroke:none;" d="M125 543L125 544L135 544L125 543z"/>
<path style="fill:#b1b1b1; stroke:none;" d="M135 543L135 544L143 544L135 543z"/>
<path style="fill:#4d4d4d; stroke:none;" d="M60.6667 544.333L61.3333 544.667L60.6667 544.333M136 544L136 545L143 545L136 544z"/>
<path style="fill:#707070; stroke:none;" d="M143 544L143 545L148 545L143 544z"/>
<path style="fill:#b1b1b1; stroke:none;" d="M148 544L148 545L154 545L148 544z"/>
<path style="fill:#707070; stroke:none;" d="M59 545L60 546L59 545z"/>
<path style="fill:#4d4d4d; stroke:none;" d="M149 545L149 546L154 546L149 545z"/>
<path style="fill:#707070; stroke:none;" d="M154 545L154 546L159 546L154 545z"/>
<path style="fill:#b1b1b1; stroke:none;" d="M159 545L159 546L172 546L159 545M175 545L175 546L180 546L175 545M59 546L60 547L59 546z"/>
<path style="fill:#4d4d4d; stroke:none;" d="M160 546L160 547L171 547L160 546z"/>
<path style="fill:#707070; stroke:none;" d="M171 546L171 547L175 547L171 546z"/>
<path style="fill:#4d4d4d; stroke:none;" d="M175 546L175 547L179 547L175 546z"/>
<path style="fill:#707070; stroke:none;" d="M179 546L180 547L179 546z"/>
<path style="fill:#b1b1b1; stroke:none;" d="M60 547L59 549L61 549L60 547z"/>
<path style="fill:#707070; stroke:none;" d="M61 547L67 549L67 548L61 547z"/>
<path style="fill:#4d4d4d; stroke:none;" d="M62 547L62 548L67 548L67 549L59 549L59 550C62.9871 549.997 66.6677 550.598 69 547L62 547z"/>
<path style="fill:#b1b1b1; stroke:none;" d="M180 547L180 548L183 548L180 547z"/>
<path style="fill:#707070; stroke:none;" d="M183 547L183 548L186 548L183 547z"/>
<path style="fill:#b1b1b1; stroke:none;" d="M186 547L187 548L186 547z"/>
<path style="fill:#4d4d4d; stroke:none;" d="M180.667 548.333L181.333 548.667L180.667 548.333M186 548L187 549L186 548z"/>
<path style="fill:#707070; stroke:none;" d="M58 549L59 550L58 549z"/>
<path style="fill:#4d4d4d; stroke:none;" d="M184.667 550.333L185.333 550.667L184.667 550.333z"/>
<path style="fill:#707070; stroke:none;" d="M186 550L187 551L186 550z"/>
<path style="fill:#b1b1b1; stroke:none;" d="M184 551L184 555L185 555L187 552L184 551M58 552L59 553L58 552z"/>
<path style="fill:#707070; stroke:none;" d="M59 552L59 553L63 554L59 552z"/>
<path style="fill:#b1b1b1; stroke:none;" d="M62 554L63 555L62 554z"/>
<path style="fill:#4d4d4d; stroke:none;" d="M143 554L144 555L143 554M171 554L171 555L174 555L171 554M63 555L64 556L63 555M90 555L90 556L95 556L90 555z"/>
<path style="fill:#707070; stroke:none;" d="M94 556L94 557L105 556L94 556z"/>
<path style="fill:#b1b1b1; stroke:none;" d="M99 555L99 556L103 556L99 555z"/>
<path style="fill:#4d4d4d; stroke:none;" d="M103 556L103 557L107 556L103 556z"/>
<path style="fill:#b1b1b1; stroke:none;" d="M171 555L171 556L177 556L171 555z"/>
<path style="fill:#707070; stroke:none;" d="M177 555L177 556L181 556L177 555z"/>
<path style="fill:#4d4d4d; stroke:none;" d="M181 555L182 556L181 555z"/>
<path style="fill:#707070; stroke:none;" d="M182.667 555.333L183.333 555.667L182.667 555.333z"/>
<path style="fill:#b1b1b1; stroke:none;" d="M63.6667 556.333L64.3333 556.667L63.6667 556.333z"/>
<path style="fill:#707070; stroke:none;" d="M65 556L66 557L65 556z"/>
<path style="fill:#4d4d4d; stroke:none;" d="M66 556L66 557L69 558L66 556M71 556L72 557L71 556M73 556L73 557L76 557L73 556z"/>
<path style="fill:#707070; stroke:none;" d="M76 556L76 557L87 557L76 556z"/>
<path style="fill:#b1b1b1; stroke:none;" d="M86 557L86 558L94 557L86 557z"/>
<path style="fill:#707070; stroke:none;" d="M169.667 556.333L170.333 556.667L169.667 556.333z"/>
<path style="fill:#b1b1b1; stroke:none;" d="M179 556L179 557L183 557L179 556M66.6667 557.333L67.3333 557.667L66.6667 557.333M71 557L71 558L83 559L83 557L71 557z"/>
<path style="fill:#fdfdfd; stroke:none;" d="M83 557L83 558L86 558L83 557z"/>
<path style="fill:#707070; stroke:none;" d="M91.6667 557.333L92.3333 557.667L91.6667 557.333z"/>
<path style="fill:#4d4d4d; stroke:none;" d="M93 557L93 558L98 558L93 557M123 557L123 558L128 558L123 557M163.667 557.333L164.333 557.667L163.667 557.333z"/>
<path style="fill:#707070; stroke:none;" d="M165.667 557.333L166.333 557.667L165.667 557.333z"/>
<path style="fill:#b1b1b1; stroke:none;" d="M167 557L167 558L170 558L167 557M68 558L66 559L66 560L68 558z"/>
<path style="fill:#707070; stroke:none;" d="M69 558L69 560L71 560L71 558L69 558z"/>
<path style="fill:#fdfdfd; stroke:none;" d="M71 558L71 559L78 559L71 558z"/>
<path style="fill:#707070; stroke:none;" d="M83 558L83 559L86 559L83 558z"/>
<path style="fill:#4d4d4d; stroke:none;" d="M86 558L86 559L90 559L86 558M112 558L112 559L115 559L112 558z"/>
<path style="fill:#707070; stroke:none;" d="M115 558L115 559L119 559L115 558z"/>
<path style="fill:#b1b1b1; stroke:none;" d="M119 558L119 559L131 559L119 558z"/>
<path style="fill:#707070; stroke:none;" d="M131 558L131 559L139 559L131 558z"/>
<path style="fill:#4d4d4d; stroke:none;" d="M139 558L139 559L156 559L139 558z"/>
<path style="fill:#707070; stroke:none;" d="M156 558L156 559L160 559L156 558z"/>
<path style="fill:#b1b1b1; stroke:none;" d="M160 558L160 559L166 559L160 558M71 559L72 560L71 559z"/>
<path style="fill:#707070; stroke:none;" d="M72 559L72 560L78 560L72 559z"/>
<path style="fill:#4d4d4d; stroke:none;" d="M78 559L78 560L83 560L78 559M100 559L100 560L104 560L100 559z"/>
<path style="fill:#707070; stroke:none;" d="M104 559L104 560L108 560L104 559z"/>
<path style="fill:#b1b1b1; stroke:none;" d="M108 559L108 560L116 560L108 559M138 559L138 560L158 560L138 559M63 560L62 562L63 560z"/>
<path style="fill:#707070; stroke:none;" d="M64 560L64 561L67 561L64 560z"/>
<path style="fill:#4d4d4d; stroke:none;" d="M67 560L67 561L72 561L67 560M93.6667 560.333L94.3333 560.667L93.6667 560.333z"/>
<path style="fill:#707070; stroke:none;" d="M95.6667 560.333L96.3333 560.667L95.6667 560.333z"/>
<path style="fill:#b1b1b1; stroke:none;" d="M97 560L97 561L105 561L97 560z"/>
<path style="fill:#4d4d4d; stroke:none;" d="M63 561L64 562L63 561M87 561L88 562L87 561z"/>
<path style="fill:#707070; stroke:none;" d="M88.6667 561.333L89.3333 561.667L88.6667 561.333z"/>
<path style="fill:#b1b1b1; stroke:none;" d="M90 561L90 562L95 562L90 561z"/>
<path style="fill:#707070; stroke:none;" d="M62 562L63 563L62 562z"/>
<path style="fill:#4d4d4d; stroke:none;" d="M81.6667 562.333L82.3333 562.667L81.6667 562.333z"/>
<path style="fill:#707070; stroke:none;" d="M83.6667 562.333L84.3333 562.667L83.6667 562.333z"/>
<path style="fill:#b1b1b1; stroke:none;" d="M85 562L85 563L89 563L85 562z"/>
<path style="fill:#4d4d4d; stroke:none;" d="M62 563L63 564L62 563M76.6667 563.333L77.3333 563.667L76.6667 563.333z"/>
<path style="fill:#707070; stroke:none;" d="M78.6667 563.333L79.3333 563.667L78.6667 563.333z"/>
<path style="fill:#b1b1b1; stroke:none;" d="M80 563L80 564L84 564L80 563M62 564L62 565L70 566L70 565L62 564z"/>
<path style="fill:#707070; stroke:none;" d="M63 564L64 565L63 564z"/>
<path style="fill:#4d4d4d; stroke:none;" d="M64 564L64 565L70 565L64 564z"/>
<path style="fill:#707070; stroke:none;" d="M70 564L70 565L74 565L70 564z"/>
<path style="fill:#b1b1b1; stroke:none;" d="M74 564L74 565L79 565L74 564z"/>
</svg>
